<svg width="159" height="39" viewBox="0 0 159 39" fill="none" xmlns="http://www.w3.org/2000/svg">
<path d="M37 18.3425V19.2625C36.9988 21.419 36.3005 23.5172 35.0093 25.2444C33.7182 26.9715 31.9033 28.235 29.8354 28.8464C27.7674 29.4579 25.5573 29.3844 23.5345 28.6371C21.5117 27.8898 19.7847 26.5086 18.611 24.6996C17.4373 22.8906 16.8798 20.7506 17.0217 18.5988C17.1636 16.4471 17.9972 14.3989 19.3983 12.7596C20.7994 11.1203 22.6928 9.97791 24.7962 9.50268C26.8996 9.02744 29.1003 9.24487 31.07 10.1225" stroke="#510B0B" stroke-width="2" stroke-linecap="round" stroke-linejoin="round"/>
<path d="M37 11.2625L27 21.2725L24 18.2725" stroke="#510B0B" stroke-width="2" stroke-linecap="round" stroke-linejoin="round"/>
<path d="M52.9698 24.405C52.0863 24.405 51.3358 24.253 50.7183 23.949C50.1103 23.6355 49.6448 23.1938 49.3218 22.6238C48.9988 22.0443 48.8183 21.3508 48.7803 20.5433C48.7708 20.1538 48.766 19.7358 48.766 19.2893C48.766 18.8428 48.7708 18.4153 48.7803 18.0068C48.8183 17.2088 48.9988 16.5201 49.3218 15.9406C49.6543 15.3611 50.1245 14.9193 50.7325 14.6153C51.35 14.3018 52.0958 14.1451 52.9698 14.1451C53.6158 14.1451 54.1953 14.2306 54.7083 14.4016C55.2213 14.5726 55.6583 14.8101 56.0193 15.1141C56.3803 15.4086 56.6605 15.7553 56.86 16.1543C57.0595 16.5533 57.164 16.9856 57.1735 17.4511C57.183 17.5366 57.1545 17.6078 57.088 17.6648C57.031 17.7218 56.9598 17.7503 56.8743 17.7503H55.5205C55.416 17.7503 55.3305 17.7266 55.264 17.6791C55.1975 17.6221 55.15 17.5318 55.1215 17.4083C54.9695 16.7813 54.7083 16.3538 54.3378 16.1258C53.9673 15.8978 53.5065 15.7838 52.9555 15.7838C52.319 15.7838 51.8108 15.9643 51.4308 16.3253C51.0508 16.6768 50.8465 17.2611 50.818 18.0781C50.7895 18.8571 50.7895 19.6551 50.818 20.4721C50.8465 21.2891 51.0508 21.8781 51.4308 22.2391C51.8108 22.5905 52.319 22.7663 52.9555 22.7663C53.5065 22.7663 53.9673 22.6523 54.3378 22.4243C54.7083 22.1868 54.9695 21.7593 55.1215 21.1418C55.15 21.0088 55.1975 20.9186 55.264 20.8711C55.3305 20.8236 55.416 20.7998 55.5205 20.7998H56.8743C56.9598 20.7998 57.031 20.8283 57.088 20.8853C57.1545 20.9423 57.183 21.0136 57.1735 21.0991C57.164 21.5646 57.0595 21.9968 56.86 22.3958C56.6605 22.7948 56.3803 23.1463 56.0193 23.4503C55.6583 23.7448 55.2213 23.9775 54.7083 24.1485C54.1953 24.3195 53.6158 24.405 52.9698 24.405ZM62.3262 24.405C61.4427 24.405 60.7017 24.2768 60.1032 24.0203C59.5142 23.7543 59.063 23.4123 58.7495 22.9943C58.4455 22.5668 58.284 22.1203 58.265 21.6548C58.265 21.5693 58.2935 21.4981 58.3505 21.4411C58.4075 21.3841 58.4787 21.3556 58.5642 21.3556H59.8325C59.956 21.3556 60.0462 21.3841 60.1032 21.4411C60.1697 21.4886 60.2267 21.5503 60.2742 21.6263C60.3312 21.8068 60.4405 21.9873 60.602 22.1678C60.7635 22.3388 60.982 22.4813 61.2575 22.5953C61.5425 22.7093 61.8987 22.7663 62.3262 22.7663C63.0102 22.7663 63.5184 22.6523 63.8509 22.4243C64.1929 22.1963 64.3639 21.8876 64.3639 21.4981C64.3639 21.2226 64.2737 21.0041 64.0932 20.8426C63.9127 20.6716 63.6324 20.5196 63.2525 20.3866C62.882 20.2441 62.388 20.0968 61.7705 19.9448C61.058 19.7738 60.4595 19.5696 59.975 19.3321C59.5 19.0851 59.139 18.7763 58.892 18.4058C58.6545 18.0353 58.5357 17.5651 58.5357 16.9951C58.5357 16.4441 58.683 15.9548 58.9775 15.5273C59.2815 15.0998 59.709 14.7626 60.26 14.5156C60.8205 14.2686 61.4855 14.1451 62.255 14.1451C62.8725 14.1451 63.4187 14.2306 63.8937 14.4016C64.3687 14.5631 64.7629 14.7816 65.0764 15.0571C65.3899 15.3231 65.6274 15.6128 65.7889 15.9263C65.9599 16.2303 66.0502 16.5296 66.0597 16.8241C66.0597 16.9001 66.0312 16.9713 65.9742 17.0378C65.9267 17.0948 65.8554 17.1233 65.7604 17.1233H64.4352C64.3592 17.1233 64.2832 17.1043 64.2072 17.0663C64.1312 17.0283 64.0694 16.9571 64.0219 16.8526C63.9649 16.5581 63.7797 16.3063 63.4662 16.0973C63.1527 15.8883 62.749 15.7838 62.255 15.7838C61.742 15.7838 61.3287 15.8788 61.0152 16.0688C60.7017 16.2588 60.545 16.5533 60.545 16.9523C60.545 17.2183 60.621 17.4416 60.773 17.6221C60.9345 17.7931 61.1862 17.9451 61.5282 18.0781C61.8797 18.2111 62.3405 18.3536 62.9105 18.5056C63.7179 18.6861 64.3782 18.8951 64.8912 19.1326C65.4042 19.3701 65.7794 19.6741 66.0169 20.0446C66.2544 20.4056 66.3732 20.8663 66.3732 21.4268C66.3732 22.0538 66.2022 22.5905 65.8602 23.037C65.5277 23.474 65.0574 23.8113 64.4494 24.0488C63.8414 24.2863 63.1337 24.405 62.3262 24.405ZM70.5653 24.2625C70.4133 24.2625 70.2946 24.2245 70.2091 24.1485C70.1236 24.0725 70.0618 23.9775 70.0238 23.8635L66.9744 14.7151C66.9554 14.6676 66.9459 14.6248 66.9459 14.5868C66.9459 14.5013 66.9744 14.4301 67.0314 14.3731C67.0884 14.3161 67.1596 14.2876 67.2451 14.2876H68.4991C68.6321 14.2876 68.7319 14.3256 68.7984 14.4016C68.8744 14.4681 68.9219 14.5346 68.9409 14.6011L71.3491 21.9398L73.7431 14.6011C73.7716 14.5346 73.8191 14.4681 73.8856 14.4016C73.9616 14.3256 74.0661 14.2876 74.1991 14.2876H75.4531C75.5291 14.2876 75.5956 14.3161 75.6526 14.3731C75.7191 14.4301 75.7523 14.5013 75.7523 14.5868C75.7523 14.6248 75.7428 14.6676 75.7238 14.7151L72.6743 23.8635C72.6363 23.9775 72.5746 24.0725 72.4891 24.1485C72.4036 24.2245 72.2848 24.2625 72.1328 24.2625H70.5653ZM84.1167 24.405C83.2902 24.405 82.573 24.2673 81.965 23.9918C81.357 23.7068 80.8867 23.2745 80.5542 22.695C80.2217 22.1061 80.0555 21.3556 80.0555 20.4436V14.6438C80.0555 14.5393 80.0887 14.4538 80.1552 14.3873C80.2217 14.3208 80.3025 14.2876 80.3975 14.2876H81.6942C81.7987 14.2876 81.8795 14.3208 81.9365 14.3873C82.003 14.4538 82.0362 14.5393 82.0362 14.6438V20.4436C82.0362 21.2226 82.2215 21.8021 82.592 22.1821C82.9625 22.5525 83.4707 22.7378 84.1167 22.7378C84.7627 22.7378 85.2662 22.5525 85.6272 22.1821C85.9977 21.8021 86.183 21.2226 86.183 20.4436V14.6438C86.183 14.5393 86.2162 14.4538 86.2827 14.3873C86.3492 14.3208 86.4347 14.2876 86.5392 14.2876H87.8217C87.9262 14.2876 88.0069 14.3208 88.0639 14.3873C88.1304 14.4538 88.1637 14.5393 88.1637 14.6438V20.4436C88.1637 21.3556 87.9974 22.1061 87.6649 22.695C87.3419 23.2745 86.8765 23.7068 86.2685 23.9918C85.67 24.2673 84.9527 24.405 84.1167 24.405ZM90.4849 26.97C90.3899 26.97 90.3091 26.9368 90.2426 26.8703C90.1761 26.8038 90.1429 26.723 90.1429 26.628V17.1946C90.1429 17.0996 90.1761 17.0188 90.2426 16.9523C90.3091 16.8858 90.3899 16.8526 90.4849 16.8526H91.6106C91.7151 16.8526 91.7959 16.8858 91.8529 16.9523C91.9194 17.0188 91.9526 17.0996 91.9526 17.1946V17.7646C92.1806 17.4606 92.4799 17.2088 92.8504 17.0093C93.2209 16.8098 93.6816 16.7101 94.2326 16.7101C94.7361 16.7101 95.1731 16.7908 95.5436 16.9523C95.9141 17.1138 96.2229 17.3466 96.4699 17.6506C96.7169 17.9451 96.9069 18.2966 97.0399 18.7051C97.1729 19.1136 97.2489 19.5648 97.2679 20.0588C97.2774 20.2203 97.2821 20.3866 97.2821 20.5576C97.2821 20.7286 97.2774 20.8996 97.2679 21.0706C97.2584 21.5456 97.1871 21.9873 97.0541 22.3958C96.9211 22.7948 96.7264 23.1463 96.4699 23.4503C96.2229 23.7448 95.9141 23.9775 95.5436 24.1485C95.1731 24.3195 94.7361 24.405 94.2326 24.405C93.7196 24.405 93.2826 24.3148 92.9216 24.1343C92.5606 23.9443 92.2661 23.6973 92.0381 23.3933V26.628C92.0381 26.723 92.0049 26.8038 91.9384 26.8703C91.8814 26.9368 91.8006 26.97 91.6961 26.97H90.4849ZM93.7054 22.8803C94.1139 22.8803 94.4321 22.7948 94.6601 22.6238C94.8881 22.4433 95.0496 22.2106 95.1446 21.9256C95.2491 21.6406 95.3109 21.3271 95.3299 20.9851C95.3489 20.7001 95.3489 20.4151 95.3299 20.1301C95.3109 19.7881 95.2491 19.4746 95.1446 19.1896C95.0496 18.9046 94.8881 18.6766 94.6601 18.5056C94.4321 18.3251 94.1139 18.2348 93.7054 18.2348C93.3159 18.2348 92.9976 18.3251 92.7506 18.5056C92.5131 18.6861 92.3374 18.9188 92.2234 19.2038C92.1189 19.4793 92.0571 19.7643 92.0381 20.0588C92.0286 20.2298 92.0239 20.4103 92.0239 20.6003C92.0239 20.7903 92.0286 20.9756 92.0381 21.1561C92.0476 21.4411 92.1141 21.7166 92.2376 21.9826C92.3611 22.2391 92.5416 22.4528 92.7791 22.6238C93.0166 22.7948 93.3254 22.8803 93.7054 22.8803ZM99.238 24.2625C99.143 24.2625 99.0623 24.2293 98.9958 24.1628C98.9293 24.0963 98.896 24.0155 98.896 23.9205V14.4871C98.896 14.3921 98.9293 14.3113 98.9958 14.2448C99.0623 14.1783 99.143 14.1451 99.238 14.1451H100.421C100.516 14.1451 100.597 14.1783 100.663 14.2448C100.73 14.3113 100.763 14.3921 100.763 14.4871V23.9205C100.763 24.0155 100.73 24.0963 100.663 24.1628C100.597 24.2293 100.516 24.2625 100.421 24.2625H99.238ZM105.93 24.405C105.17 24.405 104.529 24.272 104.007 24.006C103.494 23.74 103.099 23.3648 102.824 22.8803C102.558 22.3958 102.406 21.8306 102.368 21.1846C102.358 21.0136 102.354 20.8046 102.354 20.5576C102.354 20.3106 102.358 20.1016 102.368 19.9306C102.406 19.2751 102.563 18.7098 102.838 18.2348C103.123 17.7503 103.522 17.3751 104.035 17.1091C104.558 16.8431 105.189 16.7101 105.93 16.7101C106.671 16.7101 107.298 16.8431 107.811 17.1091C108.334 17.3751 108.733 17.7503 109.008 18.2348C109.293 18.7098 109.455 19.2751 109.493 19.9306C109.502 20.1016 109.507 20.3106 109.507 20.5576C109.507 20.8046 109.502 21.0136 109.493 21.1846C109.455 21.8306 109.298 22.3958 109.023 22.8803C108.757 23.3648 108.362 23.74 107.84 24.006C107.327 24.272 106.69 24.405 105.93 24.405ZM105.93 22.9943C106.434 22.9943 106.823 22.8375 107.099 22.524C107.374 22.2011 107.526 21.7308 107.555 21.1133C107.564 20.9708 107.569 20.7856 107.569 20.5576C107.569 20.3296 107.564 20.1443 107.555 20.0018C107.526 19.3938 107.374 18.9283 107.099 18.6053C106.823 18.2823 106.434 18.1208 105.93 18.1208C105.427 18.1208 105.037 18.2823 104.762 18.6053C104.486 18.9283 104.334 19.3938 104.306 20.0018C104.296 20.1443 104.292 20.3296 104.292 20.5576C104.292 20.7856 104.296 20.9708 104.306 21.1133C104.334 21.7308 104.486 22.2011 104.762 22.524C105.037 22.8375 105.427 22.9943 105.93 22.9943ZM113.238 24.405C112.744 24.405 112.297 24.31 111.898 24.12C111.499 23.9205 111.181 23.6593 110.944 23.3363C110.716 23.0038 110.602 22.6333 110.602 22.2248C110.602 21.5598 110.868 21.0326 111.4 20.6431C111.941 20.2441 112.654 19.9781 113.537 19.8451L115.489 19.5601V19.2608C115.489 18.8618 115.39 18.5531 115.19 18.3346C114.991 18.1161 114.649 18.0068 114.164 18.0068C113.822 18.0068 113.542 18.0781 113.323 18.2206C113.114 18.3536 112.958 18.5341 112.853 18.7621C112.777 18.8856 112.668 18.9473 112.525 18.9473H111.4C111.295 18.9473 111.214 18.9188 111.157 18.8618C111.11 18.8048 111.086 18.7288 111.086 18.6338C111.096 18.4818 111.157 18.2966 111.271 18.0781C111.385 17.8596 111.566 17.6506 111.813 17.4511C112.06 17.2421 112.378 17.0663 112.768 16.9238C113.157 16.7813 113.627 16.7101 114.178 16.7101C114.777 16.7101 115.28 16.7861 115.689 16.9381C116.107 17.0806 116.439 17.2753 116.686 17.5223C116.933 17.7693 117.114 18.0591 117.228 18.3916C117.342 18.7241 117.399 19.0756 117.399 19.4461V23.9205C117.399 24.0155 117.366 24.0963 117.299 24.1628C117.233 24.2293 117.152 24.2625 117.057 24.2625H115.903C115.798 24.2625 115.713 24.2293 115.646 24.1628C115.589 24.0963 115.561 24.0155 115.561 23.9205V23.3648C115.437 23.5453 115.271 23.7163 115.062 23.8778C114.853 24.0298 114.596 24.158 114.292 24.2625C113.998 24.3575 113.646 24.405 113.238 24.405ZM113.722 23.0513C114.055 23.0513 114.354 22.98 114.62 22.8375C114.896 22.695 115.109 22.4765 115.261 22.1821C115.423 21.8781 115.504 21.4981 115.504 21.0421V20.7428L114.079 20.9708C113.518 21.0563 113.1 21.1941 112.825 21.3841C112.549 21.5741 112.411 21.8068 112.411 22.0823C112.411 22.2913 112.473 22.4718 112.597 22.6238C112.73 22.7663 112.896 22.8755 113.095 22.9515C113.295 23.018 113.504 23.0513 113.722 23.0513ZM121.977 24.405C121.483 24.405 121.046 24.3243 120.666 24.1628C120.296 23.9918 119.987 23.7543 119.74 23.4503C119.493 23.1463 119.303 22.79 119.17 22.3815C119.037 21.9636 118.961 21.5076 118.942 21.0136C118.932 20.8426 118.928 20.6906 118.928 20.5576C118.928 20.4151 118.932 20.2583 118.942 20.0873C118.961 19.6123 119.032 19.1706 119.156 18.7621C119.289 18.3536 119.479 17.9973 119.726 17.6933C119.982 17.3798 120.296 17.1376 120.666 16.9666C121.046 16.7956 121.483 16.7101 121.977 16.7101C122.49 16.7101 122.922 16.8003 123.274 16.9808C123.635 17.1518 123.934 17.3751 124.172 17.6506V14.4871C124.172 14.3921 124.2 14.3113 124.257 14.2448C124.324 14.1783 124.409 14.1451 124.514 14.1451H125.725C125.82 14.1451 125.901 14.1783 125.967 14.2448C126.034 14.3113 126.067 14.3921 126.067 14.4871V23.9205C126.067 24.0155 126.034 24.0963 125.967 24.1628C125.901 24.2293 125.82 24.2625 125.725 24.2625H124.599C124.495 24.2625 124.409 24.2293 124.343 24.1628C124.286 24.0963 124.257 24.0155 124.257 23.9205V23.3933C124.02 23.6878 123.716 23.93 123.345 24.12C122.984 24.31 122.528 24.405 121.977 24.405ZM122.504 22.8803C122.903 22.8803 123.222 22.79 123.459 22.6095C123.697 22.429 123.872 22.2011 123.986 21.9256C124.1 21.6406 124.162 21.3508 124.172 21.0563C124.181 20.8853 124.186 20.7048 124.186 20.5148C124.186 20.3153 124.181 20.1301 124.172 19.9591C124.162 19.6741 124.096 19.4033 123.972 19.1468C123.849 18.8808 123.668 18.6623 123.431 18.4913C123.193 18.3203 122.884 18.2348 122.504 18.2348C122.105 18.2348 121.787 18.3251 121.55 18.5056C121.322 18.6766 121.155 18.9046 121.051 19.1896C120.946 19.4746 120.885 19.7881 120.866 20.1301C120.856 20.4151 120.856 20.7001 120.866 20.9851C120.885 21.3271 120.946 21.6406 121.051 21.9256C121.155 22.2106 121.322 22.4433 121.55 22.6238C121.787 22.7948 122.105 22.8803 122.504 22.8803ZM131.158 24.405C130.104 24.405 129.268 24.101 128.65 23.493C128.033 22.885 127.7 22.0206 127.653 20.8996C127.643 20.8046 127.638 20.6858 127.638 20.5433C127.638 20.3913 127.643 20.2726 127.653 20.1871C127.691 19.4746 127.852 18.8571 128.137 18.3346C128.432 17.8121 128.835 17.4131 129.348 17.1376C129.861 16.8526 130.465 16.7101 131.158 16.7101C131.928 16.7101 132.574 16.8716 133.096 17.1946C133.619 17.5081 134.013 17.9498 134.279 18.5198C134.545 19.0803 134.678 19.7311 134.678 20.4721V20.7713C134.678 20.8663 134.645 20.9471 134.578 21.0136C134.512 21.0801 134.426 21.1133 134.322 21.1133H129.591C129.591 21.1133 129.591 21.1276 129.591 21.1561C129.591 21.1846 129.591 21.2083 129.591 21.2273C129.6 21.5598 129.662 21.8686 129.776 22.1536C129.899 22.429 130.075 22.6523 130.303 22.8233C130.541 22.9943 130.821 23.0798 131.144 23.0798C131.41 23.0798 131.633 23.0418 131.814 22.9658C131.994 22.8803 132.141 22.7853 132.255 22.6808C132.369 22.5763 132.45 22.4908 132.498 22.4243C132.583 22.3103 132.65 22.2438 132.697 22.2248C132.754 22.1963 132.835 22.1821 132.939 22.1821H134.165C134.26 22.1821 134.336 22.2106 134.393 22.2676C134.459 22.3245 134.488 22.3958 134.478 22.4813C134.469 22.6333 134.388 22.8185 134.236 23.037C134.094 23.2555 133.885 23.4693 133.609 23.6783C133.334 23.8873 132.987 24.063 132.569 24.2055C132.16 24.3385 131.69 24.405 131.158 24.405ZM129.591 19.9163H132.74V19.8736C132.74 19.5031 132.678 19.1801 132.555 18.9046C132.431 18.6291 132.251 18.4106 132.013 18.2491C131.776 18.0876 131.491 18.0068 131.158 18.0068C130.826 18.0068 130.541 18.0876 130.303 18.2491C130.066 18.4106 129.885 18.6291 129.762 18.9046C129.648 19.1801 129.591 19.5031 129.591 19.8736V19.9163ZM138.941 24.405C138.447 24.405 138.01 24.3243 137.63 24.1628C137.259 23.9918 136.95 23.7543 136.703 23.4503C136.456 23.1463 136.266 22.79 136.133 22.3815C136 21.9636 135.924 21.5076 135.905 21.0136C135.896 20.8426 135.891 20.6906 135.891 20.5576C135.891 20.4151 135.896 20.2583 135.905 20.0873C135.924 19.6123 135.996 19.1706 136.119 18.7621C136.252 18.3536 136.442 17.9973 136.689 17.6933C136.946 17.3798 137.259 17.1376 137.63 16.9666C138.01 16.7956 138.447 16.7101 138.941 16.7101C139.454 16.7101 139.886 16.8003 140.237 16.9808C140.598 17.1518 140.898 17.3751 141.135 17.6506V14.4871C141.135 14.3921 141.164 14.3113 141.221 14.2448C141.287 14.1783 141.373 14.1451 141.477 14.1451H142.688C142.783 14.1451 142.864 14.1783 142.931 14.2448C142.997 14.3113 143.03 14.3921 143.03 14.4871V23.9205C143.03 24.0155 142.997 24.0963 142.931 24.1628C142.864 24.2293 142.783 24.2625 142.688 24.2625H141.563C141.458 24.2625 141.373 24.2293 141.306 24.1628C141.249 24.0963 141.221 24.0155 141.221 23.9205V23.3933C140.983 23.6878 140.679 23.93 140.309 24.12C139.948 24.31 139.492 24.405 138.941 24.405ZM139.468 22.8803C139.867 22.8803 140.185 22.79 140.423 22.6095C140.66 22.429 140.836 22.2011 140.95 21.9256C141.064 21.6406 141.126 21.3508 141.135 21.0563C141.145 20.8853 141.149 20.7048 141.149 20.5148C141.149 20.3153 141.145 20.1301 141.135 19.9591C141.126 19.6741 141.059 19.4033 140.936 19.1468C140.812 18.8808 140.632 18.6623 140.394 18.4913C140.157 18.3203 139.848 18.2348 139.468 18.2348C139.069 18.2348 138.751 18.3251 138.513 18.5056C138.285 18.6766 138.119 18.9046 138.014 19.1896C137.91 19.4746 137.848 19.7881 137.829 20.1301C137.82 20.4151 137.82 20.7001 137.829 20.9851C137.848 21.3271 137.91 21.6406 138.014 21.9256C138.119 22.2106 138.285 22.4433 138.513 22.6238C138.751 22.7948 139.069 22.8803 139.468 22.8803Z" fill="#510B0B"/>
</svg>
