<svg width="18" height="18" viewBox="0 0 18 18" fill="none" xmlns="http://www.w3.org/2000/svg">
<path d="M7.45703 9.49963C7.78218 9.9343 8.197 10.294 8.67337 10.5542C9.14974 10.8145 9.67651 10.9693 10.218 11.008C10.7594 11.0468 11.3029 10.9687 11.8114 10.779C12.32 10.5893 12.7819 10.2924 13.1657 9.90847L15.437 7.63713C16.1266 6.92316 16.5081 5.96692 16.4995 4.97436C16.4909 3.98179 16.0928 3.03233 15.3909 2.33045C14.689 1.62858 13.7395 1.23046 12.747 1.22183C11.7544 1.21321 10.7982 1.59477 10.0842 2.28434L8.78198 3.579" stroke="#3B5EDB" stroke-width="1.51423" stroke-linecap="round" stroke-linejoin="round"/>
<path d="M10.486 7.98539C10.1608 7.55071 9.74601 7.19104 9.26964 6.93078C8.79327 6.67052 8.2665 6.51575 7.72505 6.47697C7.18361 6.43819 6.64016 6.51632 6.13156 6.70604C5.62297 6.89576 5.16112 7.19264 4.77735 7.57655L2.50601 9.84789C1.81644 10.5619 1.43488 11.5181 1.4435 12.5107C1.45213 13.5032 1.85025 14.4527 2.55213 15.1546C3.254 15.8564 4.20347 16.2546 5.19603 16.2632C6.18859 16.2718 7.14483 15.8902 7.8588 15.2007L9.15346 13.906" stroke="#3B5EDB" stroke-width="1.51423" stroke-linecap="round" stroke-linejoin="round"/>
</svg>
