<svg width="22" height="23" viewBox="0 0 22 23" fill="none" xmlns="http://www.w3.org/2000/svg">
<g id="Group 6">
<path id="Vector" d="M9 12.4535C9.42945 13.0276 9.97736 13.5026 10.6066 13.8464C11.2357 14.1902 11.9315 14.3946 12.6467 14.4458C13.3618 14.497 14.0796 14.3938 14.7513 14.1432C15.4231 13.8927 16.0331 13.5005 16.54 12.9935L19.54 9.99346C20.4508 9.05045 20.9548 7.78743 20.9434 6.47645C20.932 5.16547 20.4061 3.9114 19.4791 2.98436C18.5521 2.05732 17.298 1.53148 15.987 1.52009C14.676 1.50869 13.413 2.01267 12.47 2.92346L10.75 4.63346" stroke="#510B0B" stroke-width="2" stroke-linecap="round" stroke-linejoin="round"/>
<path id="Vector_2" d="M13.0002 10.4534C12.5707 9.87931 12.0228 9.40426 11.3936 9.0605C10.7645 8.71674 10.0687 8.51233 9.35355 8.46111C8.63841 8.40989 7.92061 8.51307 7.24885 8.76366C6.5771 9.01425 5.96709 9.40637 5.4602 9.91344L2.4602 12.9134C1.54941 13.8565 1.04544 15.1195 1.05683 16.4304C1.06822 17.7414 1.59407 18.9955 2.52111 19.9225C3.44815 20.8496 4.70221 21.3754 6.01319 21.3868C7.32418 21.3982 8.58719 20.8942 9.5302 19.9834L11.2402 18.2734" stroke="#510B0B" stroke-width="2" stroke-linecap="round" stroke-linejoin="round"/>
</g>
</svg>
