<svg width="25" height="25" viewBox="0 0 25 25" fill="none" xmlns="http://www.w3.org/2000/svg">
<rect width="25" height="25" fill="#1E1E1E"/>
<g id="MacBook Air - 2">
<rect width="1281" height="932.91" transform="translate(-570 -740)" fill="#FCF8F8"/>
<g id="Frame 6" clip-path="url(#clip0_0_1)">
<g id="Drage and Drop">
<rect x="-431.5" y="-289.59" width="1004" height="369" rx="24.5" fill="#FFF1F1"/>
<g id="Frame 10">
<g id="check-circle">
<path id="Vector" d="M22.5 11.3425V12.2625C22.4988 14.419 21.8005 16.5172 20.5093 18.2444C19.2182 19.9715 17.4033 21.235 15.3354 21.8464C13.2674 22.4579 11.0573 22.3844 9.03447 21.6371C7.01168 20.8898 5.28465 19.5086 4.11096 17.6996C2.93727 15.8906 2.37979 13.7506 2.52168 11.5988C2.66356 9.44709 3.49721 7.39886 4.89828 5.7596C6.29935 4.12035 8.19279 2.97791 10.2962 2.50268C12.3996 2.02744 14.6003 2.24487 16.57 3.12253" stroke="#510B0B" stroke-width="2" stroke-linecap="round" stroke-linejoin="round"/>
<path id="Vector_2" d="M22.5 4.26254L12.5 14.2725L9.5 11.2725" stroke="#510B0B" stroke-width="2" stroke-linecap="round" stroke-linejoin="round"/>
</g>
</g>
<rect x="-431.5" y="-289.59" width="1004" height="369" rx="24.5" stroke="#F5D4D4"/>
</g>
</g>
</g>
<defs>
<clipPath id="clip0_0_1">
<rect width="1005" height="850.91" fill="white" transform="translate(-432 -699)"/>
</clipPath>
</defs>
</svg>
