<svg width="171" height="39" viewBox="0 0 171 39" fill="none" xmlns="http://www.w3.org/2000/svg">
<path d="M37.5 18.3425V19.2625C37.4988 21.419 36.8005 23.5172 35.5093 25.2444C34.2182 26.9715 32.4033 28.235 30.3354 28.8464C28.2674 29.4579 26.0573 29.3844 24.0345 28.6371C22.0117 27.8898 20.2847 26.5086 19.111 24.6996C17.9373 22.8906 17.3798 20.7506 17.5217 18.5988C17.6636 16.4471 18.4972 14.3989 19.8983 12.7596C21.2994 11.1203 23.1928 9.97791 25.2962 9.50268C27.3996 9.02744 29.6003 9.24487 31.57 10.1225" stroke="#510B0B" stroke-width="2" stroke-linecap="round" stroke-linejoin="round"/>
<path d="M37.5 11.2625L27.5 21.2725L24.5 18.2725" stroke="#510B0B" stroke-width="2" stroke-linecap="round" stroke-linejoin="round"/>
<path d="M50.1136 24.2625C50.0186 24.2625 49.9379 24.234 49.8714 24.177C49.8049 24.1105 49.7716 24.025 49.7716 23.9205V14.6438C49.7716 14.5393 49.8049 14.4538 49.8714 14.3873C49.9379 14.3208 50.0186 14.2876 50.1136 14.2876H51.4104C51.5149 14.2876 51.5956 14.3208 51.6526 14.3873C51.7191 14.4538 51.7523 14.5393 51.7523 14.6438V18.3203H55.9561V14.6438C55.9561 14.5393 55.9893 14.4538 56.0558 14.3873C56.1223 14.3208 56.2031 14.2876 56.2981 14.2876H57.5806C57.6851 14.2876 57.7706 14.3208 57.8371 14.3873C57.9036 14.4538 57.9368 14.5393 57.9368 14.6438V23.9205C57.9368 24.0155 57.9036 24.0963 57.8371 24.1628C57.7706 24.2293 57.6851 24.2625 57.5806 24.2625H56.2981C56.2031 24.2625 56.1223 24.2293 56.0558 24.1628C55.9893 24.0963 55.9561 24.0155 55.9561 23.9205V20.1016H51.7523V23.9205C51.7523 24.0155 51.7191 24.0963 51.6526 24.1628C51.5956 24.2293 51.5149 24.2625 51.4104 24.2625H50.1136ZM62.6894 24.2625C62.5944 24.2625 62.5137 24.2293 62.4472 24.1628C62.3807 24.0963 62.3474 24.0155 62.3474 23.9205V16.0403H59.7112C59.6162 16.0403 59.5354 16.0071 59.4689 15.9406C59.4024 15.8741 59.3692 15.7933 59.3692 15.6983V14.6438C59.3692 14.5393 59.4024 14.4538 59.4689 14.3873C59.5354 14.3208 59.6162 14.2876 59.7112 14.2876H66.9786C67.0831 14.2876 67.1686 14.3208 67.2351 14.3873C67.3016 14.4538 67.3349 14.5393 67.3349 14.6438V15.6983C67.3349 15.7933 67.3016 15.8741 67.2351 15.9406C67.1686 16.0071 67.0831 16.0403 66.9786 16.0403H64.3567V23.9205C64.3567 24.0155 64.3234 24.0963 64.2569 24.1628C64.1904 24.2293 64.1049 24.2625 64.0004 24.2625H62.6894ZM69.1371 24.2625C69.0326 24.2625 68.9471 24.2293 68.8806 24.1628C68.8141 24.0963 68.7808 24.0155 68.7808 23.9205V14.6438C68.7808 14.5393 68.8141 14.4538 68.8806 14.3873C68.9471 14.3208 69.0326 14.2876 69.1371 14.2876H70.2628C70.3958 14.2876 70.4956 14.3256 70.5621 14.4016C70.6286 14.4681 70.6713 14.5203 70.6903 14.5583L73.4405 19.6883L76.2193 14.5583C76.2383 14.5203 76.281 14.4681 76.3475 14.4016C76.414 14.3256 76.5138 14.2876 76.6468 14.2876H77.7583C77.8628 14.2876 77.9483 14.3208 78.0148 14.3873C78.0813 14.4538 78.1145 14.5393 78.1145 14.6438V23.9205C78.1145 24.0155 78.0813 24.0963 78.0148 24.1628C77.9483 24.2293 77.8628 24.2625 77.7583 24.2625H76.5613C76.4568 24.2625 76.3713 24.2293 76.3048 24.1628C76.2478 24.0963 76.2193 24.0155 76.2193 23.9205V17.7503L74.2243 21.5551C74.1768 21.6406 74.115 21.7166 74.039 21.7831C73.963 21.8401 73.8633 21.8686 73.7398 21.8686H73.1555C73.0225 21.8686 72.9181 21.8401 72.8421 21.7831C72.7756 21.7166 72.7186 21.6406 72.6711 21.5551L70.6761 17.7503V23.9205C70.6761 24.0155 70.6428 24.0963 70.5763 24.1628C70.5098 24.2293 70.4291 24.2625 70.3341 24.2625H69.1371ZM80.6731 24.2625C80.5781 24.2625 80.4973 24.2293 80.4308 24.1628C80.3643 24.0963 80.3311 24.0155 80.3311 23.9205V14.6296C80.3311 14.5346 80.3643 14.4538 80.4308 14.3873C80.4973 14.3208 80.5781 14.2876 80.6731 14.2876H81.9983C82.0933 14.2876 82.1741 14.3208 82.2406 14.3873C82.3071 14.4538 82.3403 14.5346 82.3403 14.6296V22.5668H86.8575C86.962 22.5668 87.0475 22.6 87.114 22.6665C87.1805 22.733 87.2138 22.8185 87.2138 22.923V23.9205C87.2138 24.0155 87.1805 24.0963 87.114 24.1628C87.0475 24.2293 86.962 24.2625 86.8575 24.2625H80.6731ZM95.4674 24.405C94.6409 24.405 93.9237 24.2673 93.3157 23.9918C92.7077 23.7068 92.2374 23.2745 91.9049 22.695C91.5724 22.1061 91.4062 21.3556 91.4062 20.4436V14.6438C91.4062 14.5393 91.4394 14.4538 91.5059 14.3873C91.5724 14.3208 91.6532 14.2876 91.7482 14.2876H93.0449C93.1494 14.2876 93.2302 14.3208 93.2872 14.3873C93.3537 14.4538 93.3869 14.5393 93.3869 14.6438V20.4436C93.3869 21.2226 93.5722 21.8021 93.9427 22.1821C94.3132 22.5525 94.8214 22.7378 95.4674 22.7378C96.1134 22.7378 96.6169 22.5525 96.9779 22.1821C97.3484 21.8021 97.5336 21.2226 97.5336 20.4436V14.6438C97.5336 14.5393 97.5669 14.4538 97.6334 14.3873C97.6999 14.3208 97.7854 14.2876 97.8899 14.2876H99.1724C99.2769 14.2876 99.3576 14.3208 99.4146 14.3873C99.4811 14.4538 99.5144 14.5393 99.5144 14.6438V20.4436C99.5144 21.3556 99.3481 22.1061 99.0156 22.695C98.6926 23.2745 98.2271 23.7068 97.6191 23.9918C97.0206 24.2673 96.3034 24.405 95.4674 24.405ZM101.836 26.97C101.741 26.97 101.66 26.9368 101.593 26.8703C101.527 26.8038 101.494 26.723 101.494 26.628V17.1946C101.494 17.0996 101.527 17.0188 101.593 16.9523C101.66 16.8858 101.741 16.8526 101.836 16.8526H102.961C103.066 16.8526 103.147 16.8858 103.204 16.9523C103.27 17.0188 103.303 17.0996 103.303 17.1946V17.7646C103.531 17.4606 103.831 17.2088 104.201 17.0093C104.572 16.8098 105.032 16.7101 105.583 16.7101C106.087 16.7101 106.524 16.7908 106.894 16.9523C107.265 17.1138 107.574 17.3466 107.821 17.6506C108.068 17.9451 108.258 18.2966 108.391 18.7051C108.524 19.1136 108.6 19.5648 108.619 20.0588C108.628 20.2203 108.633 20.3866 108.633 20.5576C108.633 20.7286 108.628 20.8996 108.619 21.0706C108.609 21.5456 108.538 21.9873 108.405 22.3958C108.272 22.7948 108.077 23.1463 107.821 23.4503C107.574 23.7448 107.265 23.9775 106.894 24.1485C106.524 24.3195 106.087 24.405 105.583 24.405C105.07 24.405 104.633 24.3148 104.272 24.1343C103.911 23.9443 103.617 23.6973 103.389 23.3933V26.628C103.389 26.723 103.356 26.8038 103.289 26.8703C103.232 26.9368 103.151 26.97 103.047 26.97H101.836ZM105.056 22.8803C105.465 22.8803 105.783 22.7948 106.011 22.6238C106.239 22.4433 106.4 22.2106 106.495 21.9256C106.6 21.6406 106.662 21.3271 106.681 20.9851C106.7 20.7001 106.7 20.4151 106.681 20.1301C106.662 19.7881 106.6 19.4746 106.495 19.1896C106.4 18.9046 106.239 18.6766 106.011 18.5056C105.783 18.3251 105.465 18.2348 105.056 18.2348C104.667 18.2348 104.348 18.3251 104.101 18.5056C103.864 18.6861 103.688 18.9188 103.574 19.2038C103.47 19.4793 103.408 19.7643 103.389 20.0588C103.379 20.2298 103.375 20.4103 103.375 20.6003C103.375 20.7903 103.379 20.9756 103.389 21.1561C103.398 21.4411 103.465 21.7166 103.588 21.9826C103.712 22.2391 103.892 22.4528 104.13 22.6238C104.367 22.7948 104.676 22.8803 105.056 22.8803ZM110.589 24.2625C110.494 24.2625 110.413 24.2293 110.346 24.1628C110.28 24.0963 110.247 24.0155 110.247 23.9205V14.4871C110.247 14.3921 110.28 14.3113 110.346 14.2448C110.413 14.1783 110.494 14.1451 110.589 14.1451H111.771C111.866 14.1451 111.947 14.1783 112.014 14.2448C112.08 14.3113 112.113 14.3921 112.113 14.4871V23.9205C112.113 24.0155 112.08 24.0963 112.014 24.1628C111.947 24.2293 111.866 24.2625 111.771 24.2625H110.589ZM117.281 24.405C116.521 24.405 115.88 24.272 115.357 24.006C114.844 23.74 114.45 23.3648 114.175 22.8803C113.909 22.3958 113.757 21.8306 113.719 21.1846C113.709 21.0136 113.704 20.8046 113.704 20.5576C113.704 20.3106 113.709 20.1016 113.719 19.9306C113.757 19.2751 113.913 18.7098 114.189 18.2348C114.474 17.7503 114.873 17.3751 115.386 17.1091C115.908 16.8431 116.54 16.7101 117.281 16.7101C118.022 16.7101 118.649 16.8431 119.162 17.1091C119.685 17.3751 120.084 17.7503 120.359 18.2348C120.644 18.7098 120.806 19.2751 120.844 19.9306C120.853 20.1016 120.858 20.3106 120.858 20.5576C120.858 20.8046 120.853 21.0136 120.844 21.1846C120.806 21.8306 120.649 22.3958 120.373 22.8803C120.107 23.3648 119.713 23.74 119.191 24.006C118.678 24.272 118.041 24.405 117.281 24.405ZM117.281 22.9943C117.785 22.9943 118.174 22.8375 118.45 22.524C118.725 22.2011 118.877 21.7308 118.906 21.1133C118.915 20.9708 118.92 20.7856 118.92 20.5576C118.92 20.3296 118.915 20.1443 118.906 20.0018C118.877 19.3938 118.725 18.9283 118.45 18.6053C118.174 18.2823 117.785 18.1208 117.281 18.1208C116.778 18.1208 116.388 18.2823 116.113 18.6053C115.837 18.9283 115.685 19.3938 115.657 20.0018C115.647 20.1443 115.642 20.3296 115.642 20.5576C115.642 20.7856 115.647 20.9708 115.657 21.1133C115.685 21.7308 115.837 22.2011 116.113 22.524C116.388 22.8375 116.778 22.9943 117.281 22.9943ZM124.589 24.405C124.095 24.405 123.648 24.31 123.249 24.12C122.85 23.9205 122.532 23.6593 122.294 23.3363C122.066 23.0038 121.952 22.6333 121.952 22.2248C121.952 21.5598 122.218 21.0326 122.75 20.6431C123.292 20.2441 124.004 19.9781 124.888 19.8451L126.84 19.5601V19.2608C126.84 18.8618 126.74 18.5531 126.541 18.3346C126.341 18.1161 125.999 18.0068 125.515 18.0068C125.173 18.0068 124.893 18.0781 124.674 18.2206C124.465 18.3536 124.308 18.5341 124.204 18.7621C124.128 18.8856 124.019 18.9473 123.876 18.9473H122.75C122.646 18.9473 122.565 18.9188 122.508 18.8618C122.461 18.8048 122.437 18.7288 122.437 18.6338C122.446 18.4818 122.508 18.2966 122.622 18.0781C122.736 17.8596 122.917 17.6506 123.164 17.4511C123.411 17.2421 123.729 17.0663 124.118 16.9238C124.508 16.7813 124.978 16.7101 125.529 16.7101C126.128 16.7101 126.631 16.7861 127.039 16.9381C127.457 17.0806 127.79 17.2753 128.037 17.5223C128.284 17.7693 128.464 18.0591 128.578 18.3916C128.692 18.7241 128.749 19.0756 128.749 19.4461V23.9205C128.749 24.0155 128.716 24.0963 128.65 24.1628C128.583 24.2293 128.502 24.2625 128.407 24.2625H127.253C127.149 24.2625 127.063 24.2293 126.997 24.1628C126.94 24.0963 126.911 24.0155 126.911 23.9205V23.3648C126.788 23.5453 126.622 23.7163 126.413 23.8778C126.204 24.0298 125.947 24.158 125.643 24.2625C125.349 24.3575 124.997 24.405 124.589 24.405ZM125.073 23.0513C125.406 23.0513 125.705 22.98 125.971 22.8375C126.246 22.695 126.46 22.4765 126.612 22.1821C126.774 21.8781 126.854 21.4981 126.854 21.0421V20.7428L125.429 20.9708C124.869 21.0563 124.451 21.1941 124.175 21.3841C123.9 21.5741 123.762 21.8068 123.762 22.0823C123.762 22.2913 123.824 22.4718 123.947 22.6238C124.08 22.7663 124.247 22.8755 124.446 22.9515C124.646 23.018 124.855 23.0513 125.073 23.0513ZM133.328 24.405C132.834 24.405 132.397 24.3243 132.017 24.1628C131.646 23.9918 131.338 23.7543 131.091 23.4503C130.844 23.1463 130.654 22.79 130.521 22.3815C130.388 21.9636 130.312 21.5076 130.293 21.0136C130.283 20.8426 130.278 20.6906 130.278 20.5576C130.278 20.4151 130.283 20.2583 130.293 20.0873C130.312 19.6123 130.383 19.1706 130.506 18.7621C130.639 18.3536 130.829 17.9973 131.076 17.6933C131.333 17.3798 131.646 17.1376 132.017 16.9666C132.397 16.7956 132.834 16.7101 133.328 16.7101C133.841 16.7101 134.273 16.8003 134.625 16.9808C134.986 17.1518 135.285 17.3751 135.522 17.6506V14.4871C135.522 14.3921 135.551 14.3113 135.608 14.2448C135.674 14.1783 135.76 14.1451 135.864 14.1451H137.076C137.171 14.1451 137.251 14.1783 137.318 14.2448C137.384 14.3113 137.418 14.3921 137.418 14.4871V23.9205C137.418 24.0155 137.384 24.0963 137.318 24.1628C137.251 24.2293 137.171 24.2625 137.076 24.2625H135.95C135.845 24.2625 135.76 24.2293 135.693 24.1628C135.636 24.0963 135.608 24.0155 135.608 23.9205V23.3933C135.37 23.6878 135.066 23.93 134.696 24.12C134.335 24.31 133.879 24.405 133.328 24.405ZM133.855 22.8803C134.254 22.8803 134.572 22.79 134.81 22.6095C135.047 22.429 135.223 22.2011 135.337 21.9256C135.451 21.6406 135.513 21.3508 135.522 21.0563C135.532 20.8853 135.537 20.7048 135.537 20.5148C135.537 20.3153 135.532 20.1301 135.522 19.9591C135.513 19.6741 135.446 19.4033 135.323 19.1468C135.199 18.8808 135.019 18.6623 134.781 18.4913C134.544 18.3203 134.235 18.2348 133.855 18.2348C133.456 18.2348 133.138 18.3251 132.9 18.5056C132.672 18.6766 132.506 18.9046 132.402 19.1896C132.297 19.4746 132.235 19.7881 132.216 20.1301C132.207 20.4151 132.207 20.7001 132.216 20.9851C132.235 21.3271 132.297 21.6406 132.402 21.9256C132.506 22.2106 132.672 22.4433 132.9 22.6238C133.138 22.7948 133.456 22.8803 133.855 22.8803ZM142.509 24.405C141.454 24.405 140.618 24.101 140.001 23.493C139.383 22.885 139.051 22.0206 139.003 20.8996C138.994 20.8046 138.989 20.6858 138.989 20.5433C138.989 20.3913 138.994 20.2726 139.003 20.1871C139.041 19.4746 139.203 18.8571 139.488 18.3346C139.782 17.8121 140.186 17.4131 140.699 17.1376C141.212 16.8526 141.815 16.7101 142.509 16.7101C143.278 16.7101 143.924 16.8716 144.447 17.1946C144.969 17.5081 145.364 17.9498 145.63 18.5198C145.896 19.0803 146.029 19.7311 146.029 20.4721V20.7713C146.029 20.8663 145.995 20.9471 145.929 21.0136C145.862 21.0801 145.777 21.1133 145.672 21.1133H140.941C140.941 21.1133 140.941 21.1276 140.941 21.1561C140.941 21.1846 140.941 21.2083 140.941 21.2273C140.951 21.5598 141.013 21.8686 141.127 22.1536C141.25 22.429 141.426 22.6523 141.654 22.8233C141.891 22.9943 142.172 23.0798 142.495 23.0798C142.761 23.0798 142.984 23.0418 143.164 22.9658C143.345 22.8803 143.492 22.7853 143.606 22.6808C143.72 22.5763 143.801 22.4908 143.848 22.4243C143.934 22.3103 144 22.2438 144.048 22.2248C144.105 22.1963 144.186 22.1821 144.29 22.1821H145.516C145.611 22.1821 145.687 22.2106 145.744 22.2676C145.81 22.3245 145.839 22.3958 145.829 22.4813C145.82 22.6333 145.739 22.8185 145.587 23.037C145.444 23.2555 145.235 23.4693 144.96 23.6783C144.684 23.8873 144.338 24.063 143.92 24.2055C143.511 24.3385 143.041 24.405 142.509 24.405ZM140.941 19.9163H144.091V19.8736C144.091 19.5031 144.029 19.1801 143.905 18.9046C143.782 18.6291 143.601 18.4106 143.364 18.2491C143.126 18.0876 142.841 18.0068 142.509 18.0068C142.176 18.0068 141.891 18.0876 141.654 18.2491C141.416 18.4106 141.236 18.6291 141.112 18.9046C140.998 19.1801 140.941 19.5031 140.941 19.8736V19.9163ZM150.291 24.405C149.797 24.405 149.36 24.3243 148.98 24.1628C148.61 23.9918 148.301 23.7543 148.054 23.4503C147.807 23.1463 147.617 22.79 147.484 22.3815C147.351 21.9636 147.275 21.5076 147.256 21.0136C147.247 20.8426 147.242 20.6906 147.242 20.5576C147.242 20.4151 147.247 20.2583 147.256 20.0873C147.275 19.6123 147.346 19.1706 147.47 18.7621C147.603 18.3536 147.793 17.9973 148.04 17.6933C148.296 17.3798 148.61 17.1376 148.98 16.9666C149.36 16.7956 149.797 16.7101 150.291 16.7101C150.804 16.7101 151.237 16.8003 151.588 16.9808C151.949 17.1518 152.248 17.3751 152.486 17.6506V14.4871C152.486 14.3921 152.514 14.3113 152.571 14.2448C152.638 14.1783 152.723 14.1451 152.828 14.1451H154.039C154.134 14.1451 154.215 14.1783 154.281 14.2448C154.348 14.3113 154.381 14.3921 154.381 14.4871V23.9205C154.381 24.0155 154.348 24.0963 154.281 24.1628C154.215 24.2293 154.134 24.2625 154.039 24.2625H152.913C152.809 24.2625 152.723 24.2293 152.657 24.1628C152.6 24.0963 152.571 24.0155 152.571 23.9205V23.3933C152.334 23.6878 152.03 23.93 151.659 24.12C151.298 24.31 150.842 24.405 150.291 24.405ZM150.819 22.8803C151.218 22.8803 151.536 22.79 151.773 22.6095C152.011 22.429 152.187 22.2011 152.301 21.9256C152.415 21.6406 152.476 21.3508 152.486 21.0563C152.495 20.8853 152.5 20.7048 152.5 20.5148C152.5 20.3153 152.495 20.1301 152.486 19.9591C152.476 19.6741 152.41 19.4033 152.286 19.1468C152.163 18.8808 151.982 18.6623 151.745 18.4913C151.507 18.3203 151.199 18.2348 150.819 18.2348C150.42 18.2348 150.101 18.3251 149.864 18.5056C149.636 18.6766 149.47 18.9046 149.365 19.1896C149.261 19.4746 149.199 19.7881 149.18 20.1301C149.17 20.4151 149.17 20.7001 149.18 20.9851C149.199 21.3271 149.261 21.6406 149.365 21.9256C149.47 22.2106 149.636 22.4433 149.864 22.6238C150.101 22.7948 150.42 22.8803 150.819 22.8803Z" fill="#510B0B"/>
</svg>
