<svg width="24" height="25" viewBox="0 0 24 25" fill="none" xmlns="http://www.w3.org/2000/svg">
<path d="M3.33398 6.5589H5.29883H21.0176" stroke="#510B0B" stroke-width="1.96484" stroke-linecap="round" stroke-linejoin="round"/>
<path d="M19.0527 6.5589V20.3128C19.0527 20.8339 18.8457 21.3337 18.4772 21.7022C18.1088 22.0706 17.609 22.2776 17.0879 22.2776H7.26367C6.74256 22.2776 6.2428 22.0706 5.87432 21.7022C5.50584 21.3337 5.29883 20.8339 5.29883 20.3128V6.5589M8.24609 6.5589V4.59406C8.24609 4.07295 8.4531 3.57318 8.82158 3.2047C9.19006 2.83622 9.68983 2.62921 10.2109 2.62921H14.1406C14.6617 2.62921 15.1615 2.83622 15.53 3.2047C15.8985 3.57318 16.1055 4.07295 16.1055 4.59406V6.5589" stroke="#510B0B" stroke-width="1.96484" stroke-linecap="round" stroke-linejoin="round"/>
</svg>
