<svg width="305" height="122" viewBox="0 0 305 122" fill="none" xmlns="http://www.w3.org/2000/svg">
<path d="M110.886 92.0651C110.246 92.0651 109.708 91.9531 109.27 91.7291C108.833 91.5051 108.508 91.1744 108.294 90.7371C108.081 90.2891 107.974 89.7344 107.974 89.0731V85.4411H106.71C106.604 85.4411 106.513 85.4037 106.438 85.3291C106.364 85.2544 106.326 85.1637 106.326 85.0571V84.1291C106.326 84.0224 106.364 83.9317 106.438 83.8571C106.513 83.7824 106.604 83.7451 106.71 83.7451H107.974V81.0891C107.974 80.9824 108.006 80.8917 108.07 80.8171C108.145 80.7424 108.241 80.7051 108.358 80.7051H109.654C109.761 80.7051 109.852 80.7424 109.926 80.8171C110.001 80.8917 110.038 80.9824 110.038 81.0891V83.7451H112.038C112.145 83.7451 112.236 83.7824 112.31 83.8571C112.385 83.9317 112.422 84.0224 112.422 84.1291V85.0571C112.422 85.1637 112.385 85.2544 112.31 85.3291C112.236 85.4037 112.145 85.4411 112.038 85.4411H110.038V88.9131C110.038 89.3504 110.113 89.6917 110.262 89.9371C110.422 90.1824 110.694 90.3051 111.078 90.3051H112.182C112.289 90.3051 112.38 90.3424 112.454 90.4171C112.529 90.4917 112.566 90.5824 112.566 90.6891V91.6811C112.566 91.7877 112.529 91.8784 112.454 91.9531C112.38 92.0277 112.289 92.0651 112.182 92.0651H110.886ZM114.386 92.0651C114.279 92.0651 114.188 92.0277 114.114 91.9531C114.039 91.8784 114.002 91.7877 114.002 91.6811V81.0891C114.002 80.9824 114.039 80.8917 114.114 80.8171C114.188 80.7424 114.279 80.7051 114.386 80.7051H115.81C115.927 80.7051 116.018 80.7424 116.082 80.8171C116.156 80.8917 116.194 80.9824 116.194 81.0891V84.7371C116.482 84.3957 116.834 84.1184 117.25 83.9051C117.666 83.6917 118.178 83.5851 118.786 83.5851C119.436 83.5851 120.002 83.7344 120.482 84.0331C120.972 84.3211 121.351 84.7317 121.618 85.2651C121.884 85.7984 122.018 86.4384 122.018 87.1851V91.6811C122.018 91.7877 121.98 91.8784 121.906 91.9531C121.831 92.0277 121.74 92.0651 121.634 92.0651H120.194C120.087 92.0651 119.996 92.0277 119.922 91.9531C119.847 91.8784 119.81 91.7877 119.81 91.6811V87.2811C119.81 86.6624 119.655 86.1771 119.346 85.8251C119.047 85.4731 118.61 85.2971 118.034 85.2971C117.479 85.2971 117.031 85.4731 116.69 85.8251C116.359 86.1771 116.194 86.6624 116.194 87.2811V91.6811C116.194 91.7877 116.156 91.8784 116.082 91.9531C116.018 92.0277 115.927 92.0651 115.81 92.0651H114.386ZM127.632 92.2251C126.448 92.2251 125.51 91.8837 124.816 91.2011C124.123 90.5184 123.75 89.5477 123.696 88.2891C123.686 88.1824 123.68 88.0491 123.68 87.8891C123.68 87.7184 123.686 87.5851 123.696 87.4891C123.739 86.6891 123.92 85.9957 124.24 85.4091C124.571 84.8224 125.024 84.3744 125.6 84.0651C126.176 83.7451 126.854 83.5851 127.632 83.5851C128.496 83.5851 129.222 83.7664 129.808 84.1291C130.395 84.4811 130.838 84.9771 131.136 85.6171C131.435 86.2464 131.584 86.9771 131.584 87.8091V88.1451C131.584 88.2517 131.547 88.3424 131.472 88.4171C131.398 88.4917 131.302 88.5291 131.184 88.5291H125.872C125.872 88.5291 125.872 88.5451 125.872 88.5771C125.872 88.6091 125.872 88.6357 125.872 88.6571C125.883 89.0304 125.952 89.3771 126.08 89.6971C126.219 90.0064 126.416 90.2571 126.672 90.4491C126.939 90.6411 127.254 90.7371 127.616 90.7371C127.915 90.7371 128.166 90.6944 128.368 90.6091C128.571 90.5131 128.736 90.4064 128.864 90.2891C128.992 90.1717 129.083 90.0757 129.136 90.0011C129.232 89.8731 129.307 89.7984 129.36 89.7771C129.424 89.7451 129.515 89.7291 129.632 89.7291H131.008C131.115 89.7291 131.2 89.7611 131.264 89.8251C131.339 89.8891 131.371 89.9691 131.36 90.0651C131.35 90.2357 131.259 90.4437 131.088 90.6891C130.928 90.9344 130.694 91.1744 130.384 91.4091C130.075 91.6437 129.686 91.8411 129.216 92.0011C128.758 92.1504 128.23 92.2251 127.632 92.2251ZM125.872 87.1851H129.408V87.1371C129.408 86.7211 129.339 86.3584 129.2 86.0491C129.062 85.7397 128.859 85.4944 128.592 85.3131C128.326 85.1317 128.006 85.0411 127.632 85.0411C127.259 85.0411 126.939 85.1317 126.672 85.3131C126.406 85.4944 126.203 85.7397 126.064 86.0491C125.936 86.3584 125.872 86.7211 125.872 87.1371V87.1851ZM140.523 92.2251C139.339 92.2251 138.4 91.8837 137.707 91.2011C137.014 90.5184 136.64 89.5477 136.587 88.2891C136.576 88.1824 136.571 88.0491 136.571 87.8891C136.571 87.7184 136.576 87.5851 136.587 87.4891C136.63 86.6891 136.811 85.9957 137.131 85.4091C137.462 84.8224 137.915 84.3744 138.491 84.0651C139.067 83.7451 139.744 83.5851 140.523 83.5851C141.387 83.5851 142.112 83.7664 142.699 84.1291C143.286 84.4811 143.728 84.9771 144.027 85.6171C144.326 86.2464 144.475 86.9771 144.475 87.8091V88.1451C144.475 88.2517 144.438 88.3424 144.363 88.4171C144.288 88.4917 144.192 88.5291 144.075 88.5291H138.763C138.763 88.5291 138.763 88.5451 138.763 88.5771C138.763 88.6091 138.763 88.6357 138.763 88.6571C138.774 89.0304 138.843 89.3771 138.971 89.6971C139.11 90.0064 139.307 90.2571 139.563 90.4491C139.83 90.6411 140.144 90.7371 140.507 90.7371C140.806 90.7371 141.056 90.6944 141.259 90.6091C141.462 90.5131 141.627 90.4064 141.755 90.2891C141.883 90.1717 141.974 90.0757 142.027 90.0011C142.123 89.8731 142.198 89.7984 142.251 89.7771C142.315 89.7451 142.406 89.7291 142.523 89.7291H143.899C144.006 89.7291 144.091 89.7611 144.155 89.8251C144.23 89.8891 144.262 89.9691 144.251 90.0651C144.24 90.2357 144.15 90.4437 143.979 90.6891C143.819 90.9344 143.584 91.1744 143.275 91.4091C142.966 91.6437 142.576 91.8411 142.107 92.0011C141.648 92.1504 141.12 92.2251 140.523 92.2251ZM138.763 87.1851H142.299V87.1371C142.299 86.7211 142.23 86.3584 142.091 86.0491C141.952 85.7397 141.75 85.4944 141.483 85.3131C141.216 85.1317 140.896 85.0411 140.523 85.0411C140.15 85.0411 139.83 85.1317 139.563 85.3131C139.296 85.4944 139.094 85.7397 138.955 86.0491C138.827 86.3584 138.763 86.7211 138.763 87.1371V87.1851ZM148.589 92.2251C148.035 92.2251 147.533 92.1184 147.085 91.9051C146.637 91.6811 146.28 91.3877 146.013 91.0251C145.757 90.6517 145.629 90.2357 145.629 89.7771C145.629 89.0304 145.928 88.4384 146.525 88.0011C147.133 87.5531 147.933 87.2544 148.925 87.1051L151.117 86.7851V86.4491C151.117 86.0011 151.005 85.6544 150.781 85.4091C150.557 85.1637 150.173 85.0411 149.629 85.0411C149.245 85.0411 148.931 85.1211 148.685 85.2811C148.451 85.4304 148.275 85.6331 148.157 85.8891C148.072 86.0277 147.949 86.0971 147.789 86.0971H146.525C146.408 86.0971 146.317 86.0651 146.253 86.0011C146.2 85.9371 146.173 85.8517 146.173 85.7451C146.184 85.5744 146.253 85.3664 146.381 85.1211C146.509 84.8757 146.712 84.6411 146.989 84.4171C147.267 84.1824 147.624 83.9851 148.061 83.8251C148.499 83.6651 149.027 83.5851 149.645 83.5851C150.317 83.5851 150.883 83.6704 151.341 83.8411C151.811 84.0011 152.184 84.2197 152.461 84.4971C152.739 84.7744 152.941 85.0997 153.069 85.4731C153.197 85.8464 153.261 86.2411 153.261 86.6571V91.6811C153.261 91.7877 153.224 91.8784 153.149 91.9531C153.075 92.0277 152.984 92.0651 152.877 92.0651H151.581C151.464 92.0651 151.368 92.0277 151.293 91.9531C151.229 91.8784 151.197 91.7877 151.197 91.6811V91.0571C151.059 91.2597 150.872 91.4517 150.637 91.6331C150.403 91.8037 150.115 91.9477 149.773 92.0651C149.443 92.1717 149.048 92.2251 148.589 92.2251ZM149.133 90.7051C149.507 90.7051 149.843 90.6251 150.141 90.4651C150.451 90.3051 150.691 90.0597 150.861 89.7291C151.043 89.3877 151.133 88.9611 151.133 88.4491V88.1131L149.533 88.3691C148.904 88.4651 148.435 88.6197 148.125 88.8331C147.816 89.0464 147.661 89.3077 147.661 89.6171C147.661 89.8517 147.731 90.0544 147.869 90.2251C148.019 90.3851 148.205 90.5077 148.429 90.5931C148.653 90.6677 148.888 90.7051 149.133 90.7051ZM158.466 92.2251C157.826 92.2251 157.277 92.1504 156.818 92.0011C156.37 91.8517 156.002 91.6651 155.714 91.4411C155.426 91.2171 155.213 90.9931 155.074 90.7691C154.935 90.5451 154.861 90.3584 154.85 90.2091C154.839 90.0917 154.871 90.0011 154.946 89.9371C155.031 89.8624 155.122 89.8251 155.218 89.8251H156.482C156.525 89.8251 156.562 89.8304 156.594 89.8411C156.626 89.8517 156.669 89.8837 156.722 89.9371C156.861 90.0544 157.005 90.1771 157.154 90.3051C157.314 90.4331 157.501 90.5451 157.714 90.6411C157.927 90.7264 158.194 90.7691 158.514 90.7691C158.93 90.7691 159.277 90.6891 159.554 90.5291C159.842 90.3584 159.986 90.1184 159.986 89.8091C159.986 89.5851 159.922 89.4037 159.794 89.2651C159.677 89.1264 159.453 89.0037 159.122 88.8971C158.791 88.7797 158.322 88.6571 157.714 88.5291C157.117 88.3904 156.621 88.2144 156.226 88.0011C155.831 87.7877 155.538 87.5211 155.346 87.2011C155.154 86.8811 155.058 86.5077 155.058 86.0811C155.058 85.6651 155.181 85.2704 155.426 84.8971C155.682 84.5131 156.055 84.1984 156.546 83.9531C157.047 83.7077 157.666 83.5851 158.402 83.5851C158.978 83.5851 159.479 83.6597 159.906 83.8091C160.333 83.9477 160.685 84.1237 160.962 84.3371C161.25 84.5504 161.469 84.7691 161.618 84.9931C161.767 85.2064 161.847 85.3931 161.858 85.5531C161.869 85.6704 161.837 85.7664 161.762 85.8411C161.687 85.9051 161.602 85.9371 161.506 85.9371H160.322C160.269 85.9371 160.221 85.9264 160.178 85.9051C160.135 85.8837 160.093 85.8571 160.05 85.8251C159.933 85.7184 159.805 85.6064 159.666 85.4891C159.527 85.3717 159.357 85.2704 159.154 85.1851C158.962 85.0891 158.706 85.0411 158.386 85.0411C157.981 85.0411 157.671 85.1317 157.458 85.3131C157.245 85.4837 157.138 85.7024 157.138 85.9691C157.138 86.1504 157.186 86.3104 157.282 86.4491C157.389 86.5771 157.597 86.6997 157.906 86.8171C158.215 86.9344 158.685 87.0571 159.314 87.1851C160.029 87.3131 160.594 87.5051 161.01 87.7611C161.437 88.0064 161.735 88.2944 161.906 88.6251C162.087 88.9451 162.178 89.3024 162.178 89.6971C162.178 90.1771 162.034 90.6091 161.746 90.9931C161.469 91.3771 161.053 91.6811 160.498 91.9051C159.954 92.1184 159.277 92.2251 158.466 92.2251ZM164.213 92.0651C164.107 92.0651 164.016 92.0277 163.941 91.9531C163.867 91.8784 163.829 91.7877 163.829 91.6811V84.1291C163.829 84.0224 163.867 83.9317 163.941 83.8571C164.016 83.7824 164.107 83.7451 164.213 83.7451H165.541C165.659 83.7451 165.749 83.7824 165.813 83.8571C165.888 83.9317 165.925 84.0224 165.925 84.1291V91.6811C165.925 91.7877 165.888 91.8784 165.813 91.9531C165.749 92.0277 165.659 92.0651 165.541 92.0651H164.213ZM164.149 82.3691C164.032 82.3691 163.936 82.3371 163.861 82.2731C163.797 82.1984 163.765 82.1024 163.765 81.9851V80.8331C163.765 80.7264 163.797 80.6357 163.861 80.5611C163.936 80.4864 164.032 80.4491 164.149 80.4491H165.605C165.723 80.4491 165.819 80.4864 165.893 80.5611C165.968 80.6357 166.005 80.7264 166.005 80.8331V81.9851C166.005 82.1024 165.968 82.1984 165.893 82.2731C165.819 82.3371 165.723 82.3691 165.605 82.3691H164.149ZM171.679 92.2251C170.495 92.2251 169.556 91.8837 168.863 91.2011C168.17 90.5184 167.796 89.5477 167.743 88.2891C167.732 88.1824 167.727 88.0491 167.727 87.8891C167.727 87.7184 167.732 87.5851 167.743 87.4891C167.786 86.6891 167.967 85.9957 168.287 85.4091C168.618 84.8224 169.071 84.3744 169.647 84.0651C170.223 83.7451 170.9 83.5851 171.679 83.5851C172.543 83.5851 173.268 83.7664 173.855 84.1291C174.442 84.4811 174.884 84.9771 175.183 85.6171C175.482 86.2464 175.631 86.9771 175.631 87.8091V88.1451C175.631 88.2517 175.594 88.3424 175.519 88.4171C175.444 88.4917 175.348 88.5291 175.231 88.5291H169.919C169.919 88.5291 169.919 88.5451 169.919 88.5771C169.919 88.6091 169.919 88.6357 169.919 88.6571C169.93 89.0304 169.999 89.3771 170.127 89.6971C170.266 90.0064 170.463 90.2571 170.719 90.4491C170.986 90.6411 171.3 90.7371 171.663 90.7371C171.962 90.7371 172.212 90.6944 172.415 90.6091C172.618 90.5131 172.783 90.4064 172.911 90.2891C173.039 90.1717 173.13 90.0757 173.183 90.0011C173.279 89.8731 173.354 89.7984 173.407 89.7771C173.471 89.7451 173.562 89.7291 173.679 89.7291H175.055C175.162 89.7291 175.247 89.7611 175.311 89.8251C175.386 89.8891 175.418 89.9691 175.407 90.0651C175.396 90.2357 175.306 90.4437 175.135 90.6891C174.975 90.9344 174.74 91.1744 174.431 91.4091C174.122 91.6437 173.732 91.8411 173.263 92.0011C172.804 92.1504 172.276 92.2251 171.679 92.2251ZM169.919 87.1851H173.455V87.1371C173.455 86.7211 173.386 86.3584 173.247 86.0491C173.108 85.7397 172.906 85.4944 172.639 85.3131C172.372 85.1317 172.052 85.0411 171.679 85.0411C171.306 85.0411 170.986 85.1317 170.719 85.3131C170.452 85.4944 170.25 85.7397 170.111 86.0491C169.983 86.3584 169.919 86.7211 169.919 87.1371V87.1851ZM180.481 92.2251C179.841 92.2251 179.292 92.1504 178.833 92.0011C178.385 91.8517 178.017 91.6651 177.729 91.4411C177.441 91.2171 177.228 90.9931 177.089 90.7691C176.951 90.5451 176.876 90.3584 176.865 90.2091C176.855 90.0917 176.887 90.0011 176.961 89.9371C177.047 89.8624 177.137 89.8251 177.233 89.8251H178.497C178.54 89.8251 178.577 89.8304 178.609 89.8411C178.641 89.8517 178.684 89.8837 178.737 89.9371C178.876 90.0544 179.02 90.1771 179.169 90.3051C179.329 90.4331 179.516 90.5451 179.729 90.6411C179.943 90.7264 180.209 90.7691 180.529 90.7691C180.945 90.7691 181.292 90.6891 181.569 90.5291C181.857 90.3584 182.001 90.1184 182.001 89.8091C182.001 89.5851 181.937 89.4037 181.809 89.2651C181.692 89.1264 181.468 89.0037 181.137 88.8971C180.807 88.7797 180.337 88.6571 179.729 88.5291C179.132 88.3904 178.636 88.2144 178.241 88.0011C177.847 87.7877 177.553 87.5211 177.361 87.2011C177.169 86.8811 177.073 86.5077 177.073 86.0811C177.073 85.6651 177.196 85.2704 177.441 84.8971C177.697 84.5131 178.071 84.1984 178.561 83.9531C179.063 83.7077 179.681 83.5851 180.417 83.5851C180.993 83.5851 181.495 83.6597 181.921 83.8091C182.348 83.9477 182.7 84.1237 182.977 84.3371C183.265 84.5504 183.484 84.7691 183.633 84.9931C183.783 85.2064 183.863 85.3931 183.873 85.5531C183.884 85.6704 183.852 85.7664 183.777 85.8411C183.703 85.9051 183.617 85.9371 183.521 85.9371H182.337C182.284 85.9371 182.236 85.9264 182.193 85.9051C182.151 85.8837 182.108 85.8571 182.065 85.8251C181.948 85.7184 181.82 85.6064 181.681 85.4891C181.543 85.3717 181.372 85.2704 181.169 85.1851C180.977 85.0891 180.721 85.0411 180.401 85.0411C179.996 85.0411 179.687 85.1317 179.473 85.3131C179.26 85.4837 179.153 85.7024 179.153 85.9691C179.153 86.1504 179.201 86.3104 179.297 86.4491C179.404 86.5771 179.612 86.6997 179.921 86.8171C180.231 86.9344 180.7 87.0571 181.329 87.1851C182.044 87.3131 182.609 87.5051 183.025 87.7611C183.452 88.0064 183.751 88.2944 183.921 88.6251C184.103 88.9451 184.193 89.3024 184.193 89.6971C184.193 90.1771 184.049 90.6091 183.761 90.9931C183.484 91.3771 183.068 91.6811 182.513 91.9051C181.969 92.1184 181.292 92.2251 180.481 92.2251ZM189.574 92.0651C188.934 92.0651 188.395 91.9531 187.958 91.7291C187.521 91.5051 187.195 91.1744 186.982 90.7371C186.769 90.2891 186.662 89.7344 186.662 89.0731V85.4411H185.398C185.291 85.4411 185.201 85.4037 185.126 85.3291C185.051 85.2544 185.014 85.1637 185.014 85.0571V84.1291C185.014 84.0224 185.051 83.9317 185.126 83.8571C185.201 83.7824 185.291 83.7451 185.398 83.7451H186.662V81.0891C186.662 80.9824 186.694 80.8917 186.758 80.8171C186.833 80.7424 186.929 80.7051 187.046 80.7051H188.342C188.449 80.7051 188.539 80.7424 188.614 80.8171C188.689 80.8917 188.726 80.9824 188.726 81.0891V83.7451H190.726C190.833 83.7451 190.923 83.7824 190.998 83.8571C191.073 83.9317 191.11 84.0224 191.11 84.1291V85.0571C191.11 85.1637 191.073 85.2544 190.998 85.3291C190.923 85.4037 190.833 85.4411 190.726 85.4411H188.726V88.9131C188.726 89.3504 188.801 89.6917 188.95 89.9371C189.11 90.1824 189.382 90.3051 189.766 90.3051H190.87C190.977 90.3051 191.067 90.3424 191.142 90.4171C191.217 90.4917 191.254 90.5824 191.254 90.6891V91.6811C191.254 91.7877 191.217 91.8784 191.142 91.9531C191.067 92.0277 190.977 92.0651 190.87 92.0651H189.574ZM39.2024 115.065C39.0957 115.065 39.005 115.033 38.9304 114.969C38.8557 114.894 38.8184 114.798 38.8184 114.681V104.265C38.8184 104.148 38.8557 104.052 38.9304 103.977C39.005 103.902 39.0957 103.865 39.2024 103.865H40.6584C40.7757 103.865 40.8664 103.902 40.9304 103.977C41.005 104.052 41.0424 104.148 41.0424 104.265V108.393H45.7624V104.265C45.7624 104.148 45.7997 104.052 45.8744 103.977C45.949 103.902 46.0397 103.865 46.1464 103.865H47.5864C47.7037 103.865 47.7997 103.902 47.8744 103.977C47.949 104.052 47.9864 104.148 47.9864 104.265V114.681C47.9864 114.788 47.949 114.878 47.8744 114.953C47.7997 115.028 47.7037 115.065 47.5864 115.065H46.1464C46.0397 115.065 45.949 115.028 45.8744 114.953C45.7997 114.878 45.7624 114.788 45.7624 114.681V110.393H41.0424V114.681C41.0424 114.788 41.005 114.878 40.9304 114.953C40.8664 115.028 40.7757 115.065 40.6584 115.065H39.2024ZM53.3226 115.065C53.2159 115.065 53.1253 115.028 53.0506 114.953C52.9759 114.878 52.9386 114.788 52.9386 114.681V105.833H49.9786C49.8719 105.833 49.7813 105.796 49.7066 105.721C49.6319 105.646 49.5946 105.556 49.5946 105.449V104.265C49.5946 104.148 49.6319 104.052 49.7066 103.977C49.7813 103.902 49.8719 103.865 49.9786 103.865H58.1386C58.2559 103.865 58.3519 103.902 58.4266 103.977C58.5013 104.052 58.5386 104.148 58.5386 104.265V105.449C58.5386 105.556 58.5013 105.646 58.4266 105.721C58.3519 105.796 58.2559 105.833 58.1386 105.833H55.1946V114.681C55.1946 114.788 55.1573 114.878 55.0826 114.953C55.0079 115.028 54.9119 115.065 54.7946 115.065H53.3226ZM60.5621 115.065C60.4448 115.065 60.3488 115.028 60.2741 114.953C60.1994 114.878 60.1621 114.788 60.1621 114.681V104.265C60.1621 104.148 60.1994 104.052 60.2741 103.977C60.3488 103.902 60.4448 103.865 60.5621 103.865H61.8261C61.9754 103.865 62.0874 103.908 62.1621 103.993C62.2368 104.068 62.2848 104.126 62.3061 104.169L65.3941 109.929L68.5141 104.169C68.5354 104.126 68.5834 104.068 68.6581 103.993C68.7328 103.908 68.8448 103.865 68.9941 103.865H70.2421C70.3594 103.865 70.4554 103.902 70.5301 103.977C70.6048 104.052 70.6421 104.148 70.6421 104.265V114.681C70.6421 114.788 70.6048 114.878 70.5301 114.953C70.4554 115.028 70.3594 115.065 70.2421 115.065H68.8981C68.7808 115.065 68.6848 115.028 68.6101 114.953C68.5461 114.878 68.5141 114.788 68.5141 114.681V107.753L66.2741 112.025C66.2208 112.121 66.1514 112.206 66.0661 112.281C65.9808 112.345 65.8688 112.377 65.7301 112.377H65.0741C64.9248 112.377 64.8074 112.345 64.7221 112.281C64.6474 112.206 64.5834 112.121 64.5301 112.025L62.2901 107.753V114.681C62.2901 114.788 62.2528 114.878 62.1781 114.953C62.1034 115.028 62.0128 115.065 61.9061 115.065H60.5621ZM73.5149 115.065C73.4082 115.065 73.3175 115.028 73.2429 114.953C73.1682 114.878 73.1309 114.788 73.1309 114.681V104.249C73.1309 104.142 73.1682 104.052 73.2429 103.977C73.3175 103.902 73.4082 103.865 73.5149 103.865H75.0029C75.1095 103.865 75.2002 103.902 75.2749 103.977C75.3495 104.052 75.3869 104.142 75.3869 104.249V113.161H80.4589C80.5762 113.161 80.6722 113.198 80.7469 113.273C80.8215 113.348 80.8589 113.444 80.8589 113.561V114.681C80.8589 114.788 80.8215 114.878 80.7469 114.953C80.6722 115.028 80.5762 115.065 80.4589 115.065H73.5149ZM89.1021 115.225C88.3234 115.225 87.6408 115.097 87.0541 114.841C86.4674 114.574 86.0141 114.201 85.6941 113.721C85.3741 113.23 85.2141 112.66 85.2141 112.009C85.2141 111.54 85.3101 111.124 85.5021 110.761C85.6941 110.388 85.9554 110.057 86.2861 109.769C86.6274 109.47 87.0061 109.198 87.4221 108.953C86.9634 108.473 86.6381 108.036 86.4461 107.641C86.2541 107.246 86.1581 106.846 86.1581 106.441C86.1581 105.95 86.2861 105.502 86.5421 105.097C86.7981 104.681 87.1661 104.345 87.6461 104.089C88.1261 103.833 88.7128 103.705 89.4061 103.705C90.0568 103.705 90.6114 103.828 91.0701 104.073C91.5394 104.318 91.9021 104.649 92.1581 105.065C92.4141 105.47 92.5421 105.918 92.5421 106.409C92.5421 106.857 92.4354 107.257 92.2221 107.609C92.0194 107.95 91.7421 108.26 91.3901 108.537C91.0381 108.814 90.6434 109.076 90.2061 109.321L92.5101 111.609C92.6381 111.396 92.7821 111.118 92.9421 110.777C93.1021 110.425 93.2408 109.993 93.3581 109.481C93.3901 109.3 93.5021 109.209 93.6941 109.209H94.8621C94.9581 109.209 95.0328 109.241 95.0861 109.305C95.1501 109.358 95.1821 109.433 95.1821 109.529C95.1714 109.753 95.1234 109.998 95.0381 110.265C94.9634 110.532 94.8568 110.814 94.7181 111.113C94.5901 111.412 94.4408 111.705 94.2701 111.993C94.0994 112.281 93.9181 112.553 93.7261 112.809L95.4221 114.537C95.5074 114.612 95.5501 114.692 95.5501 114.777C95.5501 114.862 95.5234 114.932 95.4701 114.985C95.4168 115.038 95.3421 115.065 95.2461 115.065H93.7101C93.6034 115.065 93.5181 115.049 93.4541 115.017C93.3901 114.985 93.3314 114.948 93.2781 114.905L92.3981 114.041C91.9714 114.414 91.4861 114.708 90.9421 114.921C90.4088 115.124 89.7954 115.225 89.1021 115.225ZM89.1021 113.577C89.4754 113.577 89.8381 113.508 90.1901 113.369C90.5421 113.23 90.8674 113.022 91.1661 112.745L88.6061 110.217C88.2328 110.42 87.9074 110.66 87.6301 110.937C87.3634 111.214 87.2301 111.55 87.2301 111.945C87.2301 112.286 87.3154 112.58 87.4861 112.825C87.6674 113.06 87.9021 113.246 88.1901 113.385C88.4781 113.513 88.7821 113.577 89.1021 113.577ZM89.0861 108.137C89.3741 107.977 89.6408 107.817 89.8861 107.657C90.1314 107.497 90.3234 107.321 90.4621 107.129C90.6114 106.926 90.6861 106.702 90.6861 106.457C90.6861 106.094 90.5634 105.806 90.3181 105.593C90.0728 105.38 89.7634 105.273 89.3901 105.273C89.0488 105.273 88.7448 105.38 88.4781 105.593C88.2221 105.796 88.0941 106.084 88.0941 106.457C88.0941 106.617 88.1208 106.777 88.1741 106.937C88.2381 107.097 88.3394 107.273 88.4781 107.465C88.6274 107.646 88.8301 107.87 89.0861 108.137ZM105.123 115.225C104.131 115.225 103.288 115.054 102.595 114.713C101.912 114.361 101.389 113.865 101.027 113.225C100.664 112.574 100.461 111.796 100.419 110.889C100.408 110.452 100.403 109.982 100.403 109.481C100.403 108.98 100.408 108.5 100.419 108.041C100.461 107.145 100.664 106.372 101.027 105.721C101.4 105.07 101.928 104.574 102.611 104.233C103.304 103.881 104.141 103.705 105.123 103.705C105.848 103.705 106.499 103.801 107.075 103.993C107.651 104.185 108.141 104.452 108.547 104.793C108.952 105.124 109.267 105.513 109.491 105.961C109.715 106.409 109.832 106.894 109.843 107.417C109.853 107.513 109.821 107.593 109.747 107.657C109.683 107.721 109.603 107.753 109.507 107.753H107.987C107.869 107.753 107.773 107.726 107.699 107.673C107.624 107.609 107.571 107.508 107.539 107.369C107.368 106.665 107.075 106.185 106.659 105.929C106.243 105.673 105.725 105.545 105.107 105.545C104.392 105.545 103.821 105.748 103.395 106.153C102.968 106.548 102.739 107.204 102.707 108.121C102.675 108.996 102.675 109.892 102.707 110.809C102.739 111.726 102.968 112.388 103.395 112.793C103.821 113.188 104.392 113.385 105.107 113.385C105.725 113.385 106.243 113.257 106.659 113.001C107.075 112.734 107.368 112.254 107.539 111.561C107.571 111.412 107.624 111.31 107.699 111.257C107.773 111.204 107.869 111.177 107.987 111.177H109.507C109.603 111.177 109.683 111.209 109.747 111.273C109.821 111.337 109.853 111.417 109.843 111.513C109.832 112.036 109.715 112.521 109.491 112.969C109.267 113.417 108.952 113.812 108.547 114.153C108.141 114.484 107.651 114.745 107.075 114.937C106.499 115.129 105.848 115.225 105.123 115.225ZM115.628 115.225C114.636 115.225 113.804 115.081 113.132 114.793C112.471 114.494 111.964 114.11 111.612 113.641C111.271 113.161 111.09 112.66 111.068 112.137C111.068 112.041 111.1 111.961 111.164 111.897C111.228 111.833 111.308 111.801 111.404 111.801H112.828C112.967 111.801 113.068 111.833 113.132 111.897C113.207 111.95 113.271 112.02 113.324 112.105C113.388 112.308 113.511 112.51 113.692 112.713C113.874 112.905 114.119 113.065 114.428 113.193C114.748 113.321 115.148 113.385 115.628 113.385C116.396 113.385 116.967 113.257 117.34 113.001C117.724 112.745 117.916 112.398 117.916 111.961C117.916 111.652 117.815 111.406 117.612 111.225C117.41 111.033 117.095 110.862 116.668 110.713C116.252 110.553 115.698 110.388 115.004 110.217C114.204 110.025 113.532 109.796 112.988 109.529C112.455 109.252 112.05 108.905 111.772 108.489C111.506 108.073 111.372 107.545 111.372 106.905C111.372 106.286 111.538 105.737 111.868 105.257C112.21 104.777 112.69 104.398 113.308 104.121C113.938 103.844 114.684 103.705 115.548 103.705C116.242 103.705 116.855 103.801 117.388 103.993C117.922 104.174 118.364 104.42 118.716 104.729C119.068 105.028 119.335 105.353 119.516 105.705C119.708 106.046 119.81 106.382 119.82 106.713C119.82 106.798 119.788 106.878 119.724 106.953C119.671 107.017 119.591 107.049 119.484 107.049H117.996C117.911 107.049 117.826 107.028 117.74 106.985C117.655 106.942 117.586 106.862 117.532 106.745C117.468 106.414 117.26 106.132 116.908 105.897C116.556 105.662 116.103 105.545 115.548 105.545C114.972 105.545 114.508 105.652 114.156 105.865C113.804 106.078 113.628 106.409 113.628 106.857C113.628 107.156 113.714 107.406 113.884 107.609C114.066 107.801 114.348 107.972 114.732 108.121C115.127 108.27 115.644 108.43 116.284 108.601C117.191 108.804 117.932 109.038 118.508 109.305C119.084 109.572 119.506 109.913 119.772 110.329C120.039 110.734 120.172 111.252 120.172 111.881C120.172 112.585 119.98 113.188 119.596 113.689C119.223 114.18 118.695 114.558 118.012 114.825C117.33 115.092 116.535 115.225 115.628 115.225ZM125.894 115.225C124.902 115.225 124.07 115.081 123.398 114.793C122.737 114.494 122.23 114.11 121.878 113.641C121.537 113.161 121.355 112.66 121.334 112.137C121.334 112.041 121.366 111.961 121.43 111.897C121.494 111.833 121.574 111.801 121.67 111.801H123.094C123.233 111.801 123.334 111.833 123.398 111.897C123.473 111.95 123.537 112.02 123.59 112.105C123.654 112.308 123.777 112.51 123.958 112.713C124.139 112.905 124.385 113.065 124.694 113.193C125.014 113.321 125.414 113.385 125.894 113.385C126.662 113.385 127.233 113.257 127.606 113.001C127.99 112.745 128.182 112.398 128.182 111.961C128.182 111.652 128.081 111.406 127.878 111.225C127.675 111.033 127.361 110.862 126.934 110.713C126.518 110.553 125.963 110.388 125.27 110.217C124.47 110.025 123.798 109.796 123.254 109.529C122.721 109.252 122.315 108.905 122.038 108.489C121.771 108.073 121.638 107.545 121.638 106.905C121.638 106.286 121.803 105.737 122.134 105.257C122.475 104.777 122.955 104.398 123.574 104.121C124.203 103.844 124.95 103.705 125.814 103.705C126.507 103.705 127.121 103.801 127.654 103.993C128.187 104.174 128.63 104.42 128.982 104.729C129.334 105.028 129.601 105.353 129.782 105.705C129.974 106.046 130.075 106.382 130.086 106.713C130.086 106.798 130.054 106.878 129.99 106.953C129.937 107.017 129.857 107.049 129.75 107.049H128.262C128.177 107.049 128.091 107.028 128.006 106.985C127.921 106.942 127.851 106.862 127.798 106.745C127.734 106.414 127.526 106.132 127.174 105.897C126.822 105.662 126.369 105.545 125.814 105.545C125.238 105.545 124.774 105.652 124.422 105.865C124.07 106.078 123.894 106.409 123.894 106.857C123.894 107.156 123.979 107.406 124.15 107.609C124.331 107.801 124.614 107.972 124.998 108.121C125.393 108.27 125.91 108.43 126.55 108.601C127.457 108.804 128.198 109.038 128.774 109.305C129.35 109.572 129.771 109.913 130.038 110.329C130.305 110.734 130.438 111.252 130.438 111.881C130.438 112.585 130.246 113.188 129.862 113.689C129.489 114.18 128.961 114.558 128.278 114.825C127.595 115.092 126.801 115.225 125.894 115.225ZM139.168 115.065C138.528 115.065 137.989 114.953 137.552 114.729C137.114 114.505 136.789 114.174 136.576 113.737C136.362 113.289 136.256 112.734 136.256 112.073V108.441H134.992C134.885 108.441 134.794 108.404 134.72 108.329C134.645 108.254 134.608 108.164 134.608 108.057V107.129C134.608 107.022 134.645 106.932 134.72 106.857C134.794 106.782 134.885 106.745 134.992 106.745H136.256V104.089C136.256 103.982 136.288 103.892 136.352 103.817C136.426 103.742 136.522 103.705 136.64 103.705H137.936C138.042 103.705 138.133 103.742 138.208 103.817C138.282 103.892 138.32 103.982 138.32 104.089V106.745H140.32C140.426 106.745 140.517 106.782 140.592 106.857C140.666 106.932 140.704 107.022 140.704 107.129V108.057C140.704 108.164 140.666 108.254 140.592 108.329C140.517 108.404 140.426 108.441 140.32 108.441H138.32V111.913C138.32 112.35 138.394 112.692 138.544 112.937C138.704 113.182 138.976 113.305 139.36 113.305H140.464C140.57 113.305 140.661 113.342 140.736 113.417C140.81 113.492 140.848 113.582 140.848 113.689V114.681C140.848 114.788 140.81 114.878 140.736 114.953C140.661 115.028 140.57 115.065 140.464 115.065H139.168ZM145.947 115.225C145.094 115.225 144.374 115.076 143.787 114.777C143.211 114.478 142.768 114.057 142.459 113.513C142.16 112.969 141.99 112.334 141.947 111.609C141.936 111.417 141.931 111.182 141.931 110.905C141.931 110.628 141.936 110.393 141.947 110.201C141.99 109.465 142.166 108.83 142.475 108.297C142.795 107.753 143.243 107.332 143.819 107.033C144.406 106.734 145.115 106.585 145.947 106.585C146.779 106.585 147.483 106.734 148.059 107.033C148.646 107.332 149.094 107.753 149.403 108.297C149.723 108.83 149.904 109.465 149.947 110.201C149.958 110.393 149.963 110.628 149.963 110.905C149.963 111.182 149.958 111.417 149.947 111.609C149.904 112.334 149.728 112.969 149.419 113.513C149.12 114.057 148.678 114.478 148.091 114.777C147.515 115.076 146.8 115.225 145.947 115.225ZM145.947 113.641C146.512 113.641 146.95 113.465 147.259 113.113C147.568 112.75 147.739 112.222 147.771 111.529C147.782 111.369 147.787 111.161 147.787 110.905C147.787 110.649 147.782 110.441 147.771 110.281C147.739 109.598 147.568 109.076 147.259 108.713C146.95 108.35 146.512 108.169 145.947 108.169C145.382 108.169 144.944 108.35 144.635 108.713C144.326 109.076 144.155 109.598 144.123 110.281C144.112 110.441 144.107 110.649 144.107 110.905C144.107 111.161 144.112 111.369 144.123 111.529C144.155 112.222 144.326 112.75 144.635 113.113C144.944 113.465 145.382 113.641 145.947 113.641ZM155.968 115.065C155.861 115.065 155.771 115.028 155.696 114.953C155.621 114.878 155.584 114.788 155.584 114.681V104.265C155.584 104.148 155.621 104.052 155.696 103.977C155.771 103.902 155.861 103.865 155.968 103.865H160.256C161.088 103.865 161.813 103.998 162.432 104.265C163.051 104.521 163.531 104.916 163.872 105.449C164.213 105.972 164.384 106.628 164.384 107.417C164.384 108.217 164.213 108.878 163.872 109.401C163.531 109.913 163.051 110.297 162.432 110.553C161.813 110.809 161.088 110.937 160.256 110.937H157.872V114.681C157.872 114.788 157.835 114.878 157.76 114.953C157.696 115.028 157.605 115.065 157.488 115.065H155.968ZM157.84 109.161H160.176C160.795 109.161 161.269 109.017 161.6 108.729C161.931 108.43 162.096 107.993 162.096 107.417C162.096 106.884 161.941 106.457 161.632 106.137C161.323 105.806 160.837 105.641 160.176 105.641H157.84V109.161ZM166.515 115.065C166.408 115.065 166.318 115.028 166.243 114.953C166.168 114.878 166.131 114.788 166.131 114.681V104.265C166.131 104.148 166.168 104.052 166.243 103.977C166.318 103.902 166.408 103.865 166.515 103.865H170.419C171.496 103.865 172.382 104.03 173.075 104.361C173.779 104.692 174.307 105.182 174.659 105.833C175.022 106.484 175.208 107.278 175.219 108.217C175.24 108.686 175.251 109.102 175.251 109.465C175.251 109.828 175.24 110.238 175.219 110.697C175.198 111.689 175.016 112.51 174.675 113.161C174.334 113.801 173.816 114.281 173.123 114.601C172.44 114.91 171.566 115.065 170.499 115.065H166.515ZM168.355 113.225H170.419C171.016 113.225 171.502 113.14 171.875 112.969C172.248 112.798 172.52 112.526 172.691 112.153C172.872 111.769 172.968 111.268 172.979 110.649C172.99 110.329 172.995 110.052 172.995 109.817C173.006 109.572 173.006 109.332 172.995 109.097C172.995 108.852 172.99 108.574 172.979 108.265C172.958 107.39 172.739 106.745 172.323 106.329C171.907 105.913 171.246 105.705 170.339 105.705H168.355V113.225ZM177.765 115.065C177.658 115.065 177.568 115.028 177.493 114.953C177.418 114.878 177.381 114.788 177.381 114.681V104.265C177.381 104.148 177.418 104.052 177.493 103.977C177.568 103.902 177.658 103.865 177.765 103.865H184.709C184.826 103.865 184.922 103.902 184.997 103.977C185.072 104.052 185.109 104.148 185.109 104.265V105.385C185.109 105.502 185.072 105.598 184.997 105.673C184.922 105.737 184.826 105.769 184.709 105.769H179.573V108.809H184.389C184.506 108.809 184.602 108.846 184.677 108.921C184.752 108.996 184.789 109.092 184.789 109.209V110.329C184.789 110.436 184.752 110.526 184.677 110.601C184.602 110.676 184.506 110.713 184.389 110.713H179.573V114.681C179.573 114.788 179.536 114.878 179.461 114.953C179.386 115.028 179.29 115.065 179.173 115.065H177.765ZM194.764 115.225C193.783 115.225 192.945 115.054 192.252 114.713C191.569 114.372 191.036 113.881 190.652 113.241C190.279 112.59 190.076 111.817 190.044 110.921C190.033 110.462 190.028 109.972 190.028 109.449C190.028 108.916 190.033 108.414 190.044 107.945C190.076 107.06 190.279 106.302 190.652 105.673C191.036 105.044 191.575 104.558 192.268 104.217C192.972 103.876 193.804 103.705 194.764 103.705C195.543 103.705 196.225 103.812 196.812 104.025C197.399 104.228 197.884 104.494 198.268 104.825C198.663 105.145 198.956 105.492 199.148 105.865C199.351 106.238 199.457 106.585 199.468 106.905C199.479 107.001 199.452 107.081 199.388 107.145C199.324 107.209 199.239 107.241 199.132 107.241H197.484C197.377 107.241 197.297 107.22 197.244 107.177C197.191 107.134 197.143 107.07 197.1 106.985C197.015 106.761 196.881 106.542 196.7 106.329C196.519 106.105 196.273 105.918 195.964 105.769C195.655 105.62 195.255 105.545 194.764 105.545C194.039 105.545 193.457 105.737 193.02 106.121C192.593 106.505 192.364 107.14 192.332 108.025C192.3 108.953 192.3 109.892 192.332 110.841C192.364 111.748 192.599 112.398 193.036 112.793C193.484 113.188 194.071 113.385 194.796 113.385C195.276 113.385 195.703 113.3 196.076 113.129C196.46 112.958 196.759 112.692 196.972 112.329C197.196 111.966 197.308 111.502 197.308 110.937V110.441H195.356C195.249 110.441 195.159 110.404 195.084 110.329C195.009 110.254 194.972 110.158 194.972 110.041V109.193C194.972 109.076 195.009 108.98 195.084 108.905C195.159 108.83 195.249 108.793 195.356 108.793H199.18C199.297 108.793 199.388 108.83 199.452 108.905C199.527 108.98 199.564 109.076 199.564 109.193V110.873C199.564 111.769 199.367 112.542 198.972 113.193C198.588 113.844 198.033 114.345 197.308 114.697C196.593 115.049 195.745 115.225 194.764 115.225ZM205.007 115.225C203.823 115.225 202.885 114.884 202.191 114.201C201.498 113.518 201.125 112.548 201.071 111.289C201.061 111.182 201.055 111.049 201.055 110.889C201.055 110.718 201.061 110.585 201.071 110.489C201.114 109.689 201.295 108.996 201.615 108.409C201.946 107.822 202.399 107.374 202.975 107.065C203.551 106.745 204.229 106.585 205.007 106.585C205.871 106.585 206.597 106.766 207.183 107.129C207.77 107.481 208.213 107.977 208.511 108.617C208.81 109.246 208.959 109.977 208.959 110.809V111.145C208.959 111.252 208.922 111.342 208.847 111.417C208.773 111.492 208.677 111.529 208.559 111.529H203.247C203.247 111.529 203.247 111.545 203.247 111.577C203.247 111.609 203.247 111.636 203.247 111.657C203.258 112.03 203.327 112.377 203.455 112.697C203.594 113.006 203.791 113.257 204.047 113.449C204.314 113.641 204.629 113.737 204.991 113.737C205.29 113.737 205.541 113.694 205.743 113.609C205.946 113.513 206.111 113.406 206.239 113.289C206.367 113.172 206.458 113.076 206.511 113.001C206.607 112.873 206.682 112.798 206.735 112.777C206.799 112.745 206.89 112.729 207.007 112.729H208.383C208.49 112.729 208.575 112.761 208.639 112.825C208.714 112.889 208.746 112.969 208.735 113.065C208.725 113.236 208.634 113.444 208.463 113.689C208.303 113.934 208.069 114.174 207.759 114.409C207.45 114.644 207.061 114.841 206.591 115.001C206.133 115.15 205.605 115.225 205.007 115.225ZM203.247 110.185H206.783V110.137C206.783 109.721 206.714 109.358 206.575 109.049C206.437 108.74 206.234 108.494 205.967 108.313C205.701 108.132 205.381 108.041 205.007 108.041C204.634 108.041 204.314 108.132 204.047 108.313C203.781 108.494 203.578 108.74 203.439 109.049C203.311 109.358 203.247 109.721 203.247 110.137V110.185ZM211.042 115.065C210.935 115.065 210.844 115.028 210.77 114.953C210.695 114.878 210.658 114.788 210.658 114.681V107.129C210.658 107.022 210.695 106.932 210.77 106.857C210.844 106.782 210.935 106.745 211.042 106.745H212.354C212.46 106.745 212.551 106.782 212.626 106.857C212.7 106.932 212.738 107.022 212.738 107.129V107.785C213.015 107.444 213.367 107.161 213.794 106.937C214.231 106.702 214.77 106.585 215.41 106.585C216.06 106.585 216.626 106.734 217.106 107.033C217.586 107.321 217.954 107.732 218.21 108.265C218.476 108.798 218.61 109.438 218.61 110.185V114.681C218.61 114.788 218.572 114.878 218.498 114.953C218.423 115.028 218.332 115.065 218.226 115.065H216.818C216.711 115.065 216.62 115.028 216.546 114.953C216.471 114.878 216.434 114.788 216.434 114.681V110.281C216.434 109.662 216.279 109.177 215.97 108.825C215.671 108.473 215.234 108.297 214.658 108.297C214.103 108.297 213.66 108.473 213.33 108.825C212.999 109.177 212.834 109.662 212.834 110.281V114.681C212.834 114.788 212.796 114.878 212.722 114.953C212.647 115.028 212.556 115.065 212.45 115.065H211.042ZM224.226 115.225C223.042 115.225 222.103 114.884 221.41 114.201C220.717 113.518 220.343 112.548 220.29 111.289C220.279 111.182 220.274 111.049 220.274 110.889C220.274 110.718 220.279 110.585 220.29 110.489C220.333 109.689 220.514 108.996 220.834 108.409C221.165 107.822 221.618 107.374 222.194 107.065C222.77 106.745 223.447 106.585 224.226 106.585C225.09 106.585 225.815 106.766 226.402 107.129C226.989 107.481 227.431 107.977 227.73 108.617C228.029 109.246 228.178 109.977 228.178 110.809V111.145C228.178 111.252 228.141 111.342 228.066 111.417C227.991 111.492 227.895 111.529 227.778 111.529H222.466C222.466 111.529 222.466 111.545 222.466 111.577C222.466 111.609 222.466 111.636 222.466 111.657C222.477 112.03 222.546 112.377 222.674 112.697C222.813 113.006 223.01 113.257 223.266 113.449C223.533 113.641 223.847 113.737 224.21 113.737C224.509 113.737 224.759 113.694 224.962 113.609C225.165 113.513 225.33 113.406 225.458 113.289C225.586 113.172 225.677 113.076 225.73 113.001C225.826 112.873 225.901 112.798 225.954 112.777C226.018 112.745 226.109 112.729 226.226 112.729H227.602C227.709 112.729 227.794 112.761 227.858 112.825C227.933 112.889 227.965 112.969 227.954 113.065C227.943 113.236 227.853 113.444 227.682 113.689C227.522 113.934 227.287 114.174 226.978 114.409C226.669 114.644 226.279 114.841 225.81 115.001C225.351 115.15 224.823 115.225 224.226 115.225ZM222.466 110.185H226.002V110.137C226.002 109.721 225.933 109.358 225.794 109.049C225.655 108.74 225.453 108.494 225.186 108.313C224.919 108.132 224.599 108.041 224.226 108.041C223.853 108.041 223.533 108.132 223.266 108.313C222.999 108.494 222.797 108.74 222.658 109.049C222.53 109.358 222.466 109.721 222.466 110.137V110.185ZM230.26 115.065C230.154 115.065 230.063 115.028 229.988 114.953C229.914 114.878 229.876 114.788 229.876 114.681V107.145C229.876 107.028 229.914 106.932 229.988 106.857C230.063 106.782 230.154 106.745 230.26 106.745H231.556C231.663 106.745 231.754 106.782 231.828 106.857C231.914 106.932 231.956 107.028 231.956 107.145V107.801C232.202 107.46 232.516 107.198 232.9 107.017C233.295 106.836 233.748 106.745 234.26 106.745H234.916C235.034 106.745 235.124 106.782 235.188 106.857C235.263 106.932 235.3 107.022 235.3 107.129V108.281C235.3 108.388 235.263 108.478 235.188 108.553C235.124 108.628 235.034 108.665 234.916 108.665H233.668C233.156 108.665 232.756 108.809 232.468 109.097C232.191 109.385 232.052 109.78 232.052 110.281V114.681C232.052 114.788 232.015 114.878 231.94 114.953C231.866 115.028 231.77 115.065 231.652 115.065H230.26ZM238.839 115.225C238.285 115.225 237.783 115.118 237.335 114.905C236.887 114.681 236.53 114.388 236.263 114.025C236.007 113.652 235.879 113.236 235.879 112.777C235.879 112.03 236.178 111.438 236.775 111.001C237.383 110.553 238.183 110.254 239.175 110.105L241.367 109.785V109.449C241.367 109.001 241.255 108.654 241.031 108.409C240.807 108.164 240.423 108.041 239.879 108.041C239.495 108.041 239.181 108.121 238.935 108.281C238.701 108.43 238.525 108.633 238.407 108.889C238.322 109.028 238.199 109.097 238.039 109.097H236.775C236.658 109.097 236.567 109.065 236.503 109.001C236.45 108.937 236.423 108.852 236.423 108.745C236.434 108.574 236.503 108.366 236.631 108.121C236.759 107.876 236.962 107.641 237.239 107.417C237.517 107.182 237.874 106.985 238.311 106.825C238.749 106.665 239.277 106.585 239.895 106.585C240.567 106.585 241.133 106.67 241.591 106.841C242.061 107.001 242.434 107.22 242.711 107.497C242.989 107.774 243.191 108.1 243.319 108.473C243.447 108.846 243.511 109.241 243.511 109.657V114.681C243.511 114.788 243.474 114.878 243.399 114.953C243.325 115.028 243.234 115.065 243.127 115.065H241.831C241.714 115.065 241.618 115.028 241.543 114.953C241.479 114.878 241.447 114.788 241.447 114.681V114.057C241.309 114.26 241.122 114.452 240.887 114.633C240.653 114.804 240.365 114.948 240.023 115.065C239.693 115.172 239.298 115.225 238.839 115.225ZM239.383 113.705C239.757 113.705 240.093 113.625 240.391 113.465C240.701 113.305 240.941 113.06 241.111 112.729C241.293 112.388 241.383 111.961 241.383 111.449V111.113L239.783 111.369C239.154 111.465 238.685 111.62 238.375 111.833C238.066 112.046 237.911 112.308 237.911 112.617C237.911 112.852 237.981 113.054 238.119 113.225C238.269 113.385 238.455 113.508 238.679 113.593C238.903 113.668 239.138 113.705 239.383 113.705ZM249.246 115.065C248.606 115.065 248.067 114.953 247.63 114.729C247.192 114.505 246.867 114.174 246.654 113.737C246.44 113.289 246.334 112.734 246.334 112.073V108.441H245.07C244.963 108.441 244.872 108.404 244.798 108.329C244.723 108.254 244.686 108.164 244.686 108.057V107.129C244.686 107.022 244.723 106.932 244.798 106.857C244.872 106.782 244.963 106.745 245.07 106.745H246.334V104.089C246.334 103.982 246.366 103.892 246.43 103.817C246.504 103.742 246.6 103.705 246.718 103.705H248.014C248.12 103.705 248.211 103.742 248.286 103.817C248.36 103.892 248.398 103.982 248.398 104.089V106.745H250.398C250.504 106.745 250.595 106.782 250.67 106.857C250.744 106.932 250.782 107.022 250.782 107.129V108.057C250.782 108.164 250.744 108.254 250.67 108.329C250.595 108.404 250.504 108.441 250.398 108.441H248.398V111.913C248.398 112.35 248.472 112.692 248.622 112.937C248.782 113.182 249.054 113.305 249.438 113.305H250.542C250.648 113.305 250.739 113.342 250.814 113.417C250.888 113.492 250.926 113.582 250.926 113.689V114.681C250.926 114.788 250.888 114.878 250.814 114.953C250.739 115.028 250.648 115.065 250.542 115.065H249.246ZM256.025 115.225C255.172 115.225 254.452 115.076 253.865 114.777C253.289 114.478 252.846 114.057 252.537 113.513C252.238 112.969 252.068 112.334 252.025 111.609C252.014 111.417 252.009 111.182 252.009 110.905C252.009 110.628 252.014 110.393 252.025 110.201C252.068 109.465 252.244 108.83 252.553 108.297C252.873 107.753 253.321 107.332 253.897 107.033C254.484 106.734 255.193 106.585 256.025 106.585C256.857 106.585 257.561 106.734 258.137 107.033C258.724 107.332 259.172 107.753 259.481 108.297C259.801 108.83 259.982 109.465 260.025 110.201C260.036 110.393 260.041 110.628 260.041 110.905C260.041 111.182 260.036 111.417 260.025 111.609C259.982 112.334 259.806 112.969 259.497 113.513C259.198 114.057 258.756 114.478 258.169 114.777C257.593 115.076 256.878 115.225 256.025 115.225ZM256.025 113.641C256.59 113.641 257.028 113.465 257.337 113.113C257.646 112.75 257.817 112.222 257.849 111.529C257.86 111.369 257.865 111.161 257.865 110.905C257.865 110.649 257.86 110.441 257.849 110.281C257.817 109.598 257.646 109.076 257.337 108.713C257.028 108.35 256.59 108.169 256.025 108.169C255.46 108.169 255.022 108.35 254.713 108.713C254.404 109.076 254.233 109.598 254.201 110.281C254.19 110.441 254.185 110.649 254.185 110.905C254.185 111.161 254.19 111.369 254.201 111.529C254.233 112.222 254.404 112.75 254.713 113.113C255.022 113.465 255.46 113.641 256.025 113.641ZM262.198 115.065C262.091 115.065 262.001 115.028 261.926 114.953C261.851 114.878 261.814 114.788 261.814 114.681V107.145C261.814 107.028 261.851 106.932 261.926 106.857C262.001 106.782 262.091 106.745 262.198 106.745H263.494C263.601 106.745 263.691 106.782 263.766 106.857C263.851 106.932 263.894 107.028 263.894 107.145V107.801C264.139 107.46 264.454 107.198 264.838 107.017C265.233 106.836 265.686 106.745 266.198 106.745H266.854C266.971 106.745 267.062 106.782 267.126 106.857C267.201 106.932 267.238 107.022 267.238 107.129V108.281C267.238 108.388 267.201 108.478 267.126 108.553C267.062 108.628 266.971 108.665 266.854 108.665H265.606C265.094 108.665 264.694 108.809 264.406 109.097C264.129 109.385 263.99 109.78 263.99 110.281V114.681C263.99 114.788 263.953 114.878 263.878 114.953C263.803 115.028 263.707 115.065 263.59 115.065H262.198Z" fill="#545454"/>
<path d="M21.1176 49.6532L34.1605 41.9656C34.5083 41.7606 34.8833 41.71 35.2853 41.8139C35.6874 41.9178 35.9909 42.1436 36.1959 42.4914L39.83 48.6571C42.29 52.8309 42.7049 56.9319 41.0745 60.9603C39.4255 64.9571 36.1189 68.4185 31.1547 71.3444C26.2221 74.2517 21.69 75.4532 17.5584 74.9487C13.4081 74.4127 10.0377 71.9471 7.44722 67.5521L2.75081 59.5841C0.272156 55.3787 -0.164974 51.3121 1.43942 47.3842C3.02518 43.4247 6.23693 40.0192 11.0747 37.1678C15.944 34.2978 20.4863 33.0052 24.7015 33.29C28.898 33.5431 31.8722 35.1558 33.624 38.128C33.7918 38.4126 33.8302 38.7307 33.7393 39.0825C33.6614 39.3841 33.4802 39.6187 33.1956 39.7864L22.7139 45.9644C22.0815 46.3372 21.5205 46.4335 21.0309 46.2534C19.914 45.804 19.1602 45.6093 18.7694 45.6692C17.8745 45.8133 17.1266 46.0623 16.5258 46.4164C14.0912 47.8514 13.5727 49.7547 14.9705 52.1261L19.7228 60.189C21.3069 62.8766 23.3953 63.4563 25.9881 61.9281C28.6441 60.3626 29.3012 58.4416 27.9593 56.165L25.7302 57.4789C25.3824 57.6839 25.0075 57.7345 24.6054 57.6306C24.2034 57.5268 23.8998 57.3009 23.6948 56.9531L20.5919 51.6885C20.3869 51.3407 20.3363 50.9658 20.4401 50.5638C20.544 50.1617 20.7698 49.8582 21.1176 49.6532Z" fill="black"/>
<path d="M83.6388 46.7124C83.814 46.8853 83.9431 47.0934 84.026 47.3365C84.1089 47.5797 84.0702 47.8644 83.91 48.1904C83.7726 48.4699 83.5476 48.663 83.2349 48.7696L72.5526 52.4113C71.4756 52.7785 70.5689 52.5641 69.8322 51.7683L61.9578 43.3432L59.8213 44.0716L63.2144 54.0244C63.3446 54.4066 63.3182 54.7839 63.135 55.1566C62.9519 55.5293 62.6692 55.7807 62.2871 55.911L52.0737 59.3929C51.6915 59.5232 51.3141 59.4967 50.9415 59.3136C50.5688 59.1304 50.3174 58.8478 50.1871 58.4656L38.711 24.8031C38.5807 24.421 38.6072 24.0436 38.7903 23.6709C38.9735 23.2983 39.2562 23.0468 39.6383 22.9165L55.0626 17.6582C60.0651 15.9527 64.3582 15.7494 67.9419 17.0482C71.5137 18.3122 74.0162 21.0459 75.4492 25.2494C76.8704 29.4181 76.1136 33.3405 73.179 37.0166L83.6388 46.7124ZM54.5629 28.6473L56.446 34.1708L60.2499 32.874C61.0142 32.6135 61.5219 32.169 61.7729 31.5405C62.0122 30.8773 62.0015 30.1635 61.7409 29.3993C61.4804 28.635 61.0469 28.046 60.4406 27.6323C59.8571 27.172 59.1659 27.0781 58.3669 27.3505L54.5629 28.6473Z" fill="black"/>
<path d="M85.2799 12.6978C88.2107 9.50585 92.4158 7.49402 97.8951 6.66232C103.374 5.83063 107.972 6.52493 111.687 8.74524C115.433 10.9238 117.678 14.4624 118.421 19.3611L119.71 27.8523C120.465 32.8236 119.389 36.8663 116.484 39.9801C113.609 43.0522 109.396 45.0096 103.844 45.8524C98.2918 46.6951 93.6692 46.0788 89.976 44.0037C86.3136 41.8867 84.1051 38.3426 83.3505 33.3713L82.0617 24.8801C81.3126 19.9451 82.3853 15.8843 85.2799 12.6978ZM99.1281 34.5959C99.964 35.2115 100.999 35.4257 102.233 35.2384C103.466 35.0511 104.391 34.5395 105.007 33.7036C105.622 32.8677 105.817 31.7059 105.591 30.2181L104.203 21.0738C103.983 19.6223 103.455 18.5888 102.619 17.9732C101.778 17.3213 100.74 17.089 99.5062 17.2763C98.2724 17.4636 97.3505 17.9933 96.7404 18.8655C96.1248 19.7014 95.9272 20.8451 96.1475 22.2966L97.5355 31.4409C97.7614 32.9287 98.2922 33.9803 99.1281 34.5959Z" fill="black"/>
<path d="M144.761 19.3832L159.898 19.6455C160.302 19.6525 160.648 19.8053 160.937 20.104C161.225 20.4027 161.366 20.7538 161.359 21.1575L161.235 28.3135C161.151 33.1575 159.361 36.8707 155.866 39.4531C152.371 41.9989 147.743 43.2218 141.982 43.122C136.257 43.0228 131.765 41.6785 128.506 39.0892C125.248 36.4632 123.663 32.5997 123.751 27.4988L123.912 18.2511C123.996 13.3704 125.749 9.67487 129.17 7.16457C132.591 4.61757 137.109 3.39271 142.723 3.48999C148.375 3.58792 152.923 4.85974 156.368 7.30546C159.813 9.71449 161.506 12.6438 161.447 16.0933C161.441 16.4236 161.307 16.7149 161.046 16.9674C160.822 17.1837 160.545 17.289 160.215 17.2833L148.049 17.0725C147.315 17.0598 146.787 16.8488 146.464 16.4394C145.746 15.4725 145.205 14.9125 144.841 14.7594C144.003 14.4145 143.235 14.236 142.537 14.2239C139.712 14.175 138.275 15.5266 138.227 18.2789L138.065 27.6367C138.011 30.756 139.489 32.3417 142.498 32.3938C145.581 32.4472 147.145 31.1528 147.19 28.5106L144.603 28.4658C144.2 28.4588 143.854 28.306 143.565 28.0073C143.277 27.7086 143.136 27.3575 143.143 26.9538L143.249 20.8437C143.256 20.44 143.409 20.094 143.707 19.8055C144.006 19.517 144.357 19.3762 144.761 19.3832Z" fill="black"/>
<path d="M168.58 31.6542L178.063 33.014C178.462 33.0713 178.787 33.2661 179.035 33.5984C179.284 33.9307 179.38 34.2967 179.323 34.6964L177.963 44.1788C177.906 44.5784 177.711 44.9027 177.379 45.1517C177.046 45.4007 176.68 45.4965 176.281 45.4392L166.798 44.0794C166.399 44.0221 166.074 43.8273 165.825 43.495C165.577 43.1626 165.481 42.7967 165.538 42.397L166.898 32.9146C166.955 32.515 167.15 32.1907 167.482 31.9417C167.815 31.6927 168.181 31.5969 168.58 31.6542Z" fill="black"/>
<path d="M195.36 9.30451L211.185 13.6311C216.283 15.0248 219.966 17.2112 222.234 20.1903C224.501 23.1693 225.049 26.8007 223.878 31.0845C222.707 35.3683 220.407 38.1449 216.978 39.4143C213.584 40.6934 209.321 40.6312 204.187 39.2277L200.735 38.284L197.962 48.4271C197.856 48.8166 197.622 49.1142 197.262 49.32C196.901 49.5258 196.526 49.5754 196.136 49.469L185.197 46.4781C184.807 46.3717 184.51 46.1381 184.304 45.7774C184.098 45.4168 184.048 45.0417 184.155 44.6523L193.534 10.3464C193.64 9.95692 193.874 9.6593 194.235 9.4535C194.595 9.24771 194.97 9.19804 195.36 9.30451ZM204.767 22.4923L203.156 28.387L206.873 29.4033C207.51 29.5775 208.14 29.5023 208.761 29.1775C209.392 28.8174 209.829 28.1948 210.071 27.3097C210.313 26.4246 210.321 25.6279 210.096 24.9196C209.872 24.2112 209.334 23.7409 208.485 23.5086L204.767 22.4923Z" fill="black"/>
<path d="M238.034 21.9534L252.37 28.7266C257.216 31.0158 260.625 34.1085 262.6 38.0048C264.624 41.8837 264.617 45.9801 262.579 50.2942L259.074 57.7111C256.942 62.2243 253.8 64.9211 249.65 65.8017C245.499 66.6822 240.935 65.9465 235.957 63.5947L221.572 56.7979C221.207 56.6254 220.954 56.3437 220.814 55.9528C220.674 55.5619 220.69 55.1839 220.863 54.8189L236.055 22.6624C236.228 22.2973 236.51 22.0448 236.901 21.9047C237.291 21.7647 237.669 21.7809 238.034 21.9534ZM244.549 36.9046L237.258 52.3358L240.494 53.8645C241.622 54.3975 242.675 54.489 243.652 54.1389C244.678 53.7713 245.505 52.9237 246.132 51.5963L249.636 44.1794C250.891 41.5246 250.273 39.6092 247.784 38.4333L244.549 36.9046Z" fill="black"/>
<path d="M280.512 43.6524L303.155 59.689C303.485 59.9223 303.685 60.2436 303.755 60.6529C303.824 61.0622 303.743 61.4316 303.509 61.7611L298.673 68.5902C298.44 68.9196 298.118 69.1193 297.709 69.1892C297.3 69.2592 296.93 69.1775 296.601 68.9441L283.751 59.844L281.397 63.1687L293.348 71.6324C293.677 71.8658 293.877 72.1871 293.947 72.5964C294.017 73.0057 293.935 73.3751 293.702 73.7046L288.897 80.4887C288.664 80.8182 288.342 81.0179 287.933 81.0878C287.524 81.1577 287.154 81.076 286.825 80.8427L274.874 72.3789L268.892 80.8254C268.659 81.1548 268.337 81.3545 267.928 81.4245C267.519 81.4944 267.149 81.4127 266.82 81.1793L258.239 75.102C257.909 74.8686 257.71 74.5473 257.64 74.138C257.57 73.7287 257.651 73.3593 257.885 73.0298L278.44 44.0063C278.673 43.6769 278.994 43.4772 279.404 43.4072C279.813 43.3373 280.182 43.419 280.512 43.6524Z" fill="black"/>
<path opacity="0.06" d="M208.859 88.0894H250.509" stroke="black" stroke-width="2.5"/>
<path opacity="0.06" d="M45.8591 88.0894H87.5091" stroke="black" stroke-width="2.5"/>
</svg>
